<svg xmlns="http://www.w3.org/2000/svg" xmlns:xlink="http://www.w3.org/1999/xlink" viewBox="0 0 500 500" xmlns:v="https://vecta.io/nano"><style><![CDATA[.a{fill:#ba68c8}.b{fill:#e0e0e0}.c{fill:#fafafa}.d{fill:#fff}.e{fill:#263238}.f{fill:#455a64}.g{opacity:.3}.h{fill:#f0f0f0}.i{opacity:.15}.j{fill:#37474f}.k{fill:#b16668}.l{fill:#f0997a}]]></style><ellipse cx="251.7" cy="350.3" rx="235.3" ry="124.1" fill="#f5f5f5"/><path d="M400.7 309.6c-16.3 9.4-16.3 24.7 0 34.1s42.7 9.4 59 0 16.3-24.7 0-34.1c-16.2-9.4-42.7-9.4-59 0z" fill="#e6e6e6"/><g class="b"><ellipse cx="366.1" cy="381.8" rx="64.6" ry="37.3"/><path d="M57 411.6l6.6 3.8c2.1 1.2 5.5 1.2 7.5 0l145.5-84c2.1-1.2 2.1-3.1 0-4.4l-6.6-3.8c-2.1-1.2-5.5-1.2-7.5 0L57 407.2c-2.1 1.2-2.1 3.2 0 4.4zm37 8l6.6 3.8c2.1 1.2 5.5 1.2 7.5 0L232.3 352c2.1-1.2 2.1-3.1 0-4.4l-6.6-3.8c-2.1-1.2-5.5-1.2-7.5 0L94 415.3c-2.1 1.2-2.1 3.1 0 4.3z"/></g><path d="M454.5 111.3l-1.8 1L417 91.7l1.7-1.1z" class="c"/><path d="M418.7 90.6l34 19.7V74.6l-34-19.6z" class="d"/><path d="M413.7 93.6L456 118V72.7l-42.3-24.4v45.3zM417 54l35.8 20.6v37.7L417 91.7V54z" class="h"/><path d="M417 91.7l1.7-1.1V55l-1.7-1z" class="b"/><path d="M413.7 48.3l1.7-1 42.4 24.4-1.8 1.1z" class="c"/><path d="M457.8 71.7l-1.8 1.1V118l1.8-1z" class="b"/><path d="M420 89.6l31.4 18.1v-9.1l-7.9-18.1-4.8 4.5 1.7 7.6-10.8-23.1-9.6 11zm19-17.8c1.3.7 2.3 2.5 2.3 4s-1 2.1-2.3 1.3-2.3-2.5-2.3-4c-.1-1.5 1-2.1 2.3-1.3z" class="h"/><path d="M454.5 168.2l-1.8 1-35.7-20.7 1.7-1z" class="c"/><path d="M418.7 147.5l34 19.6v-35.6l-34-19.6z" class="d"/><path d="M413.7 150.4l42.3 24.4v-45.3l-42.3-24.4v45.3zm3.3-39.5l35.8 20.6v37.7L417 148.5v-37.6z" class="h"/><path d="M417 148.5l1.7-1v-35.6l-1.7-1z" class="b"/><path d="M413.7 105.2l1.7-1 42.4 24.4-1.8 1z" class="c"/><path d="M457.8 128.6l-1.8 1v45.3l1.8-1z" class="b"/><path d="M420 146.4l31.4 18.2v-9.1l-7.9-18.1-4.8 4.5 1.7 7.6-10.8-23.2-9.6 11.1zm19-17.8c1.3.7 2.3 2.5 2.3 4s-1 2.1-2.3 1.3c-1.3-.7-2.3-2.5-2.3-4-.1-1.4 1-2 2.3-1.3z" class="h"/><use xlink:href="#B" class="a"/><g class="d"><use xlink:href="#B" class="g"/><path d="M63.5 394.4c-.2-.1-.4-.3-.4-.6.7-35.8-9.8-58.2-25-70.9-.2-.2-.3-.6-.1-.9.1-.3.5-.4.7-.2 15.4 12.8 26.2 35.7 25.5 72 0 .4-.2.6-.5.6h-.2z"/></g><path d="M60.6 404.5c-1.7 1.2-2.6-1.3-3.4-4.1-2.7-9.1-5.7-13.8-10.7-20.2-6.2-7.8-17-15.1-18.2-21.5-1.1-5.9 3.6-10.4 12.1-7.3 10.1 3.8 23.8 16 23.3 51.2l-3.1 1.9z" class="a"/><path d="M61.3 400c-.2-.1-.3-.3-.4-.5-4.8-27.2-19.8-40.6-26.8-43.3-.3-.1-.4-.5-.4-.8.1-.3.3-.5.6-.4 7.7 2.9 22.7 16.6 27.6 44.3.1.4-.1.7-.4.8-.1-.1-.1-.1-.2-.1z" class="d"/><path d="M400.5 280.6c0-.3.2-.6.6-.9.8-.5 2.2-.5 3 0 .4.2.6.6.6.9l-7.6 44.9h0c0 .2-.2.4-.4.6-.6.3-1.5.3-2.1 0-.3-.2-.4-.4-.4-.6h0l6.3-44.9zm58.6 0c0-.3-.2-.6-.6-.9-.8-.5-2.2-.5-3 0-.4.2-.6.6-.6.9l7.6 44.9h0c0 .2.2.4.4.6.6.3 1.5.3 2.1 0 .3-.2.4-.4.4-.6h0l-6.3-44.9zm-27 3.4c0-.3-.2-.6-.6-.9-.8-.5-2.2-.5-3 0-.4.2-.6.6-.6.9l.6 53.4h0c0 .2.2.4.4.6.6.3 1.5.3 2.1 0 .3-.2.4-.4.4-.6h0l.7-53.4z" class="f"/><use xlink:href="#C" class="a"/><use xlink:href="#C" opacity=".4" class="d"/><use xlink:href="#D" class="a"/><use xlink:href="#D" opacity=".6" class="d"/><g opacity=".05"><path d="M438.4 258.5c4.8 2.8 4.8 7.2 0 10s-12.5 2.8-17.3 0-4.8-7.2 0-10c4.8-2.7 12.5-2.7 17.3 0z"/></g><path d="M422.2 264.1c-4.2-4.2-6.6-14.8-2.5-18.2h20.6c4 3.4 1.6 13.9-2.5 18.2l-.1.1-.1.1c-.1.1-.2.2-.4.3l-.1.1c-.1.1-.2.2-.3.2-.2.1-.4.2-.5.3-3.4 2-8.9 2-12.4 0h0 0c-.2-.1-.4-.2-.5-.3s-.2-.1-.3-.2l-.1-.1c-.1-.1-.2-.2-.4-.3-.2 0-.3 0-.4-.2 0 .1 0 .1 0 0z" fill="#ebebeb"/><path d="M438.4 244.6c4.7 2.7 4.7 7.1 0 9.8s-12.3 2.7-17 0-4.7-7.1 0-9.8 12.3-2.7 17 0z" class="c"/><path d="M435.1 246.5c2.9 1.7 2.9 4.3 0 6s-7.5 1.7-10.4 0-2.9-4.3 0-6c2.9-1.6 7.6-1.6 10.4 0z" fill="#ebebeb"/><path d="M424.8 249.4c2.9-1.7 7.5-1.7 10.4 0 .8.5 1.4 1 1.7 1.6-.4.6-.9 1.1-1.7 1.6-2.9 1.7-7.5 1.7-10.4 0-.8-.5-1.4-1-1.7-1.6.3-.6.9-1.2 1.7-1.6z" class="b"/><g class="a"><path d="M434.5 251s2-1.9 3.7-5 2-7.2 1.2-7.7c-.9-.5-4.5 3.6-4.5 3.6s.5-2.5.4-5.2c-.2-2.7-.8-5.2-1.6-5.7s-2.5 2.9-3.3 5.4l-1.2 4.5s-.5-3.4-1.3-5.7c-.9-2.6-1.7-3.2-2.4-2.9-.6.3-1.1 1.5-1.2 4.9-.1 2.4.2 4.9.2 4.9l-2.7-2.8c-1.6-1.5-2.2-1.7-2.7-1.4-.4.3-.6 2.6 1.9 7 2.1 3.9 4.6 6 4.6 6s3.2 2.2 8.9.1z"/><use xlink:href="#E"/></g><use xlink:href="#E" opacity=".05"/><use xlink:href="#F" class="a"/><use xlink:href="#F" class="g"/><use xlink:href="#G" class="a"/><use xlink:href="#G" class="i"/><path d="M75.7 127.5c-3.4 2-6.2 6.8-6.2 10.8v252.6c0 4 2.8 5.6 6.2 3.6l115-66.5c3.4-2 6.2-6.8 6.2-10.8V64.6c0-4-2.8-5.6-6.2-3.6l-115 66.5z" class="e"/><path d="M187.4 310.3V62.9L75.7 127.5c-3.4 2-6.2 6.8-6.2 10.8v247.4l111.8-64.5c3.3-2.1 6.1-6.9 6.1-10.9z" class="j"/><path d="M123.7 88.2l19-10.9c1.1-.7 2-.2 2 1s-.9 2.7-2 3.4l-19 10.9c-1.1.7-2 .2-2-1s.9-2.8 2-3.4zm32.5-18.8c1.1-.6 1.9-.1 1.9 1.1s-.9 2.7-1.9 3.3c-1.1.6-1.9.1-1.9-1.1s.9-2.7 1.9-3.3zm7.7-4.5c1.1-.6 1.9-.1 1.9 1.1s-.9 2.7-1.9 3.3c-1.1.6-1.9.1-1.9-1.1s.9-2.6 1.9-3.3zm-61.4 35.5c1.1-.6 1.9-.1 1.9 1.1s-.9 2.7-1.9 3.3c-1.1.6-1.9.1-1.9-1.1-.1-1.2.8-2.7 1.9-3.3zm7.6-4.4c1.1-.6 1.9-.1 1.9 1.1s-.9 2.7-1.9 3.3c-1.1.6-1.9.1-1.9-1.1s.9-2.7 1.9-3.3z" class="e"/><use xlink:href="#H" class="a"/><use xlink:href="#I" opacity=".2"/><path d="M355.8 189.6c-.3-.9-1.1-1.2-2.1-.6l-26.9 15.5c-.6.3-1.1.9-1.5 1.6l-6.1-3.5c.4-.7.9-1.3 1.5-1.6l26.9-15.5c1.2-.7 3.1-.7 4.3 0l1.8 1c1 .6 1.9 1.9 2.1 3.1z" class="d g"/><path d="M349.2 200.3c-.2-.1-.4-.1-.6 0L331 210.4a.55.55 0 0 0-.3.5v16.7a.55.55 0 0 0 .3.5c.1.1.2.1.3.1s.2 0 .3-.1l17.6-10.1a.55.55 0 0 0 .3-.5v-16.7a.55.55 0 0 0-.3-.5zm-9.2 14.9l-7.4-4.2 14.9-8.6-7.5 12.8zm-2.6-.2l-5.4 10.3v-13.4l5.4 3.1zm1 .6l1.5.9c.1 0 .2.1.3.1a.55.55 0 0 0 .5-.3l1.7-2.9 5.5 4.1-15.1 8.7 5.6-10.6zm4.6-3.3l5.4-9.4v13.4l-5.4-4z" class="c"/><path d="M310.8 216.2c0-1.4-1-3-2.2-3.7l-1.8-1c-1.2-.7-3.1-.7-4.3 0L275.8 227c-1.2.7-2.2 2.4-2.2 3.7v29.6c0 1.4 1 3 2.2 3.7l1.8 1c1.2.7 3.1.7 4.3 0l26.9-15.5c1.2-.7 2.2-2.4 2.2-3.7l-.2-29.6z" class="a"/><use xlink:href="#I" x="-45.1" y="26" opacity=".2"/><path d="M310.8 215.6c-.3-.9-1.1-1.2-2.1-.6l-26.9 15.5c-.6.3-1.1.9-1.5 1.6l-6.1-3.5c.4-.7.9-1.3 1.5-1.6l26.9-15.5c1.2-.7 3.1-.7 4.3 0l1.8 1c1 .6 1.8 1.9 2.1 3.1z" class="d g"/><path d="M304.2 232.5l-8.5 4.9c-1 .6-1.8 2.3-1.8 3.9v6.2c0 1.6.8 2.4 1.8 1.8l4.5-2.6 3.1 3.3c.1.1.2.1.3 0 .1 0 .2-.1.2-.2.2-.3.3-.7.2-1l-.6-4.1.6-.4c1-.6 1.8-2.3 1.8-3.9v-6.2c.3-1.5-.6-2.3-1.6-1.7zm.9 8.8c0 .8-.4 1.6-.9 1.9l-1.2.7c-.1.1-.3.3-.4.5s-.1.5-.1.7l.4 2.2-2.1-1.9c-.1-.1-.2-.1-.3 0l-4.7 2.7c-.5.3-.9-.1-.9-.9v-6.5c0-.8.4-1.6.9-1.9l8.5-4.9c.5-.3.9.1.9.9v6.5zm-12.3 1.9l-.2.1-.3.3-4.1 7 .2-4c0-.2 0-.5-.1-.6s-.2-.2-.4-.1l-1.2.7c-.6.3-1.1-.1-1.1-1.1v-9.3c0-.9.5-2 1.1-2.3l13.6-7.9c.6-.3 1.1.1 1.1 1.1v5.1c0 .4.2.6.5.5.3-.2.5-.6.5-1v-5.1c0-1.7-.9-2.6-2.1-2l-13.6 7.9c-1.1.7-2.1 2.6-2.1 4.3v9.3c0 1.7.9 2.6 2.1 2l.5-.3-.1 4.6c-.1.3 0 .6.2.7h.3l.3-.3 4.8-8.1h0c.3-.2.5-.6.5-1 .1-.5-.1-.7-.4-.5z" class="c"/><use xlink:href="#H" x="-90.2" y="52" class="a"/><use xlink:href="#I" x="-90.2" y="52.1" opacity=".2"/><path d="M265.6 241.7c-.3-.9-1.1-1.2-2.1-.6l-26.9 15.5c-.6.3-1.1.9-1.5 1.6l-6.1-3.5c.4-.7.9-1.3 1.5-1.6l26.9-15.5c1.2-.7 3.1-.7 4.3 0l1.8 1c1.1.5 1.9 1.8 2.1 3.1z" class="d g"/><path d="M254.1 276.9h-.1c-6-.5-10.2-4.6-12.5-12-.8-2.6 0-5.8 2.1-8.1.5-.5 1-.8 1.5-.8 1.3 0 3.5 3.7 3.6 5.1 0 1.2-.5 2.1-1 2.9-.7 1.1-.8 2-.4 3.1.7 2.1 1.9 3.2 3.6 3.4.4 0 .8-.4 1.1-1.3.5-1.5 1.2-2.4 1.9-2.7.5-.2 1.1-.2 1.7.1l.3.1c.5.2.9.5 1.4.8h0c.1.1.2.1.2.1.8.5 1.6 1.1 1.2 3.2-.4 2.2-2 5.1-3.5 6-.1 0-.1.1-.2.1h-.1-.8zm-9.1-19.8c-.1 0-.3.2-.6.4-1.8 2-2.6 4.8-1.9 7 2.2 7.1 6 10.8 11.5 11.2.1 0 .3 0 .5-.1h.1c1.1-.7 2.5-3.2 2.9-5.2.3-1.4-.1-1.6-.6-2-.1-.1-.2-.1-.3-.2h0c-.4-.3-.8-.5-1.3-.7l-.3-.1c-.4-.2-.6-.1-.8-.1-.3.1-.8.6-1.3 2-.6 1.8-1.6 2.1-2.3 2-2.1-.3-3.7-1.6-4.5-4.1-.5-1.4-.3-2.7.5-4 .4-.7.8-1.4.8-2.2 0-1-1.9-3.7-2.4-3.9z" class="c"/><path d="M346.4 23.6L230.7 90.3c-1.4.8-2.6 2.8-2.6 4.5v133.8c0 1.7 1.2 3.7 2.6 4.5l1.6.9c1.4.8 3.8.8 5.2 0l115.7-66.8c1.4-.8 2.6-2.9 2.6-4.5V29c0-1.7-1.2-3.7-2.6-4.5l-1.6-.9c-1.4-.8-3.7-.8-5.2 0z" class="b"/><path d="M355.9 162.9c0 2.3-1.6 3.8-3.6 4.9l-113.7 65.7c-2 1.1-3.6.2-3.6-2.1V99.9h0c0-2.6 1.4-4.9 3.6-6.2L352.3 28c1.6-.9 3.6.2 3.6 2.1h0v132.8z" class="c"/><path d="M353.5 28.6h0c.7 0 1.4.5 1.4 1.4v132.9c0 1.6-1 2.8-3.1 4L238 232.6c-.4.2-.8.4-1.1.4-.9 0-1-1-1-1.6V99.9c0-2.2 1.2-4.2 3.1-5.3l113.8-65.7c.2-.2.4-.3.7-.3m0-1c-.4 0-.8.1-1.2.3L238.5 93.7c-2.2 1.3-3.6 3.6-3.6 6.2v131.5c0 1.6.8 2.6 2 2.6.5 0 1-.2 1.6-.5l113.7-65.7c2-1.1 3.6-2.6 3.6-4.9V30c.1-1.4-1.1-2.4-2.3-2.4h0z" class="b"/><path d="M355.9 29v1c0-1.8-2-3-3.6-2.1L238.5 93.7c-1.1.6-2 1.5-2.6 2.6v.1l-7-4.1c.5-.8 1.1-1.6 1.9-2l115.7-66.7c1.4-.8 3.8-.8 5.2 0l1.6.9c1.4.8 2.6 2.9 2.6 4.5z" class="h"/><path d="M249.4 124h-.2l-.1-.1-1.7-2.9v3.9.2c0 .1-.1.1-.1.1l-.5.3h-.1v-.2-6.1-.2c0-.1.1-.1.1-.1l.4-.2h.2l.1.1 1.7 2.9v-3.9-.2c0-.1.1-.1.1-.1l.5-.3h.1v.2 6.1.2c0 .1-.1.1-.1.1l-.4.2zm1.5-4.6c0-.1.1-.3.1-.5.1-.2.1-.4.3-.6.1-.2.2-.4.4-.6s.3-.3.6-.4c.2-.1.4-.2.6-.2s.3 0 .4.1.2.2.3.5c.1.2.1.5.1.8v2.8.2c0 .1-.1.1-.1.1l-.5.3h-.1v-.2-.3c-.1.2-.2.5-.4.7s-.4.4-.6.5-.3.2-.5.2c-.1 0-.3 0-.3-.1-.1-.1-.2-.2-.2-.3-.1-.2-.1-.3-.1-.5 0-.4.1-.8.3-1.2s.5-.7.8-1l1-.8c0-.3-.1-.4-.2-.5-.1 0-.2 0-.4.1-.1.1-.2.1-.2.2-.1.1-.1.2-.2.3 0 .1-.1.1-.1.2l-.1.1-.6.3h-.1c-.2-.1-.2-.1-.2-.2zm1 2.1c.1-.1.3-.2.4-.3s.2-.3.3-.4.1-.3.2-.4c0-.1.1-.3.1-.4v-.1l-.8.7c-.2.1-.3.3-.4.4s-.1.3-.1.4 0 .2.1.2c0 0 .1-.1.2-.1zm3.3-5.3c.1-.2.2-.4.4-.6.1-.2.3-.3.4-.4.3-.1.5-.2.6-.1a.78.78 0 0 1 .4.4c.1-.2.1-.3.2-.5a.76.76 0 0 0 .2-.4l.3-.3c.1-.1.2-.2.3-.2.2-.1.4-.2.6-.2s.3.1.4.3c.1.1.2.3.2.6 0 .2.1.5.1.8v2.5.2c0 .1-.1.1-.1.1l-.5.3h-.1s-.1-.1-.1-.2V116c0-.4-.1-.7-.2-.8s-.3-.1-.4 0c-.2.1-.3.3-.4.5s-.2.6-.2 1v2.5.2c0 .1-.1.1-.1.1l-.5.3h-.1v-.2-2.5c0-.4-.1-.7-.2-.8s-.3-.1-.4 0c-.2.1-.3.3-.4.5s-.2.6-.2 1v2.5.2c0 .1-.1.1-.1.1l-.5.3h-.1v-.2-4.4-.2c0-.1.1-.1.1-.1l.5-.3h.1v.2.3zm4.7-.8c0-.4 0-.7.1-1.1l.3-1c.1-.3.3-.6.5-.8l.6-.6c.2-.1.4-.2.6-.2s.3.1.5.2c.1.1.2.3.3.6s.1.5.1.9v.4.2c0 .1-.1.1-.1.1l-2.1 1.2c0 .1 0 .3.1.3 0 .1.1.2.2.2s.1.1.2 0c.1 0 .2 0 .3-.1s.2-.2.3-.2c.1-.1.1-.2.2-.3 0-.1.1-.1.1-.2l.1-.1.5-.3h.1s.1.1 0 .2c0 .1 0 .2-.1.4s-.1.4-.3.6c-.1.2-.3.4-.4.6-.2.2-.4.4-.6.5s-.4.2-.6.2-.3-.1-.5-.3l-.3-.6c-.1-.1-.1-.4-.1-.8zm1.5-2.2l-.3.3c-.1.1-.2.2-.2.3-.1.1-.1.2-.1.4 0 .1 0 .2-.1.3l1.4-.8v-.3c0-.1-.1-.2-.1-.2-.1-.1-.1-.1-.2-.1-.2-.1-.3 0-.4.1z" class="f"/><path d="M268.9 91c-.2.1-.4.3-.6.5s-.3.4-.4.6-.2.4-.2.7c0 .2-.1.5-.1.7v.6.7.7.5c0 .2 0 .4.1.6 0 .2.1.3.2.4s.2.2.4.2.3-.1.6-.2c.2-.1.3-.2.5-.4.2-.1.3-.3.4-.5s.2-.4.3-.7.1-.5.1-.8l-.8.5h-.2c-.1-.1-.1-.1-.1-.2v-1.6c0-.1 0-.2.1-.3s.1-.2.2-.2l2.4-1.4h.2c.1.1.1.1.1.2v1.9c0 .6-.1 1.3-.2 1.9l-.6 1.7c-.3.5-.6 1-1 1.4s-.8.7-1.2 1c-.5.3-.9.4-1.3.4s-.7-.1-.9-.3c-.3-.2-.5-.5-.6-1-.1-.4-.2-.9-.2-1.4v-1.3-1.4c0-.6.1-1.1.2-1.7s.3-1.1.6-1.7l.9-1.4c.4-.4.8-.8 1.3-1.1s.9-.4 1.2-.4c.4 0 .7.1.9.2.3.2.5.4.6.7s.2.6.2.9c0 .1 0 .2-.1.3 0 .1-.1.2-.2.2l-1.3.8c-.1.1-.2.1-.2 0l-.2-.2c-.1-.1-.2-.2-.4-.3-.1 0-.3.1-.7.2zm5.6 2.1c0 .2 0 .4.1.5s.1.2.2.2h.3c.1 0 .2-.1.3-.1.2-.1.4-.2.5-.4.1-.1.2-.3.3-.4s.1-.2.2-.3c0 0 .1-.1.2-.1l1.3-.7c.1-.1.2 0 .2.2 0 .1 0 .3-.1.6s-.3.6-.5 1a4.44 4.44 0 0 1-.8 1.1c-.3.4-.7.7-1.2 1-.4.2-.8.4-1.1.4s-.6-.1-.8-.3-.4-.6-.5-1a6.96 6.96 0 0 1-.2-1.6c0-.6.1-1.2.2-1.7.1-.6.3-1.1.5-1.6s.5-.9.8-1.3.7-.7 1.1-1c.5-.3.9-.4 1.2-.3s.6.2.8.5.4.6.5 1.1c.1.4.1.9.1 1.4v.4c0 .1 0 .2-.1.3s-.1.2-.2.2l-3.3 1.9zm.9-3.4c-.3.2-.5.4-.6.7l-.3 1 1.8-1c0-.3-.1-.5-.3-.7-.1-.2-.3-.2-.6 0zm5.9-.5c0 .2 0 .4.1.5s.2.1.3 0l.8-.5h.2c.1.1.1.1.1.2V91c0 .1 0 .2-.1.3s-.1.2-.2.2l-.9.5c-.3.2-.6.3-.8.3-.3 0-.5-.1-.6-.2-.2-.2-.3-.4-.4-.7s-.1-.7-.1-1.2v-2.5l-.7.4h-.2c-.1-.1-.1-.1-.1-.2v-1.5c0-.1 0-.2.1-.3s.1-.2.2-.2l.7-.4V83c0-.1 0-.2.1-.3s.1-.2.2-.2l1.2-.7h.2c.1 0 .1.1.1.2v2.5l1.1-.6h.2c.1.1.1.1.1.2v1.5c0 .1 0 .2-.1.3s-.1.2-.2.2l-1.1.6v2.5zm6.2-9.6c0 .1 0 .2-.1.3s-.1.2-.2.2l-1.2.7h-.2c-.1-.1-.1-.1-.1-.2v-1.5c0-.1 0-.2.1-.3s.1-.2.2-.2l1.2-.7h.2c.1.1.1.1.1.2v1.5zm0 8.7c0 .1 0 .2-.1.3s-.1.2-.2.2l-1.2.7h-.2c-.1-.1-.1-.1-.1-.2v-7.1c0-.1 0-.2.1-.3s.1-.2.2-.2l1.2-.7h.2c.1.1.1.1.1.2v7.1zm6.3-3.7c0 .1 0 .2-.1.3s-.1.2-.2.2l-1.2.7h-.2c-.1 0-.1-.1-.1-.2v-3.8c0-.4-.1-.7-.2-.9s-.4-.2-.6 0c-.3.2-.5.4-.6.8a3.73 3.73 0 0 0-.2 1.2v3.8c0 .1 0 .2-.1.3s-.1.2-.2.2l-1.2.7h-.2c-.1-.1-.1-.1-.1-.2v-7.1c0-.1 0-.2.1-.3s.1-.2.2-.2l1.2-.7h.2c.1.1.1.1.1.2v.3c.1-.1.1-.3.2-.4.1-.2.2-.3.3-.5.1-.1.2-.3.4-.4.1-.1.3-.3.5-.4.3-.2.6-.3.9-.3s.5.1.7.2c.2.2.3.4.4.8s.2.9.2 1.5v4.2zm5.4-5.8c0 .2 0 .4.1.5s.2.1.3 0l.8-.5h.2c.1.1.1.1.1.2v1.5c0 .1 0 .2-.1.3s-.1.2-.2.2l-.9.5c-.3.2-.6.3-.8.3-.3 0-.5-.1-.6-.2-.2-.2-.3-.4-.4-.7s-.1-.7-.1-1.2v-2.5l-.7.4h-.2c-.1-.1-.1-.1-.1-.2V76c0-.1 0-.2.1-.3s.1-.2.2-.2l.7-.4v-2.5c0-.1 0-.2.1-.3s.1-.2.2-.2l1.2-.7h.2c.1 0 .1.1.1.2V74l1.1-.6h.2c.1.1.1.1.1.2v1.5c0 .1 0 .2-.1.3s-.1.2-.2.2l-1.1.6v2.6zm7.4-5.7v.6.6c0 .5-.1 1-.2 1.5s-.3 1-.5 1.4c-.2.5-.5.9-.8 1.2-.3.4-.7.7-1.1.9s-.8.3-1.1.4c-.3 0-.6-.1-.8-.3s-.4-.5-.5-.8a4.3 4.3 0 0 1-.2-1.2v-.6-.6c0-.5.1-1 .2-1.5s.3-1 .5-1.4c.2-.5.5-.9.8-1.2.3-.4.7-.7 1.1-.9s.8-.3 1.1-.3.6.1.8.3.4.5.5.8c.1.2.2.6.2 1.1zm-3.6 3.2c0 .4.1.6.3.7s.4.1.6 0c.3-.2.5-.4.6-.7.2-.3.3-.7.3-1.1v-.5-.5c0-.4-.1-.6-.3-.7s-.4-.1-.6 0c-.3.2-.5.4-.6.7-.2.3-.3.7-.3 1.1v.5.5zm4.5-6.7c0-.1 0-.2.1-.3s.1-.2.2-.2l1.2-.7h.2c.1.1.1.1.1.2v3.8c0 .4.1.7.2.9s.3.2.6 0 .5-.4.6-.7.2-.7.2-1.1v-3.8c0-.1 0-.2.1-.3s.1-.2.2-.2l1.2-.7h.2c.1.1.1.1.1.2v7.1c0 .1 0 .2-.1.3s-.1.2-.2.2l-1.1.7h-.2c-.1-.1-.1-.1-.1-.2v-.3c-.1.1-.1.3-.2.4s-.2.3-.3.4-.2.3-.4.4c-.1.1-.3.3-.5.4-.6.4-1.1.4-1.5 0-.4-.3-.6-1.1-.6-2.3v-4.2zm7.8-1.5v.5.5c0 .4.1.6.3.7s.4.1.6 0 .4-.3.5-.4c.1-.2.2-.3.3-.6 0-.1.1-.2.1-.3s.1-.1.2-.2l1.3-.7h.2c.1 0 .1.1.1.2 0 .2 0 .4-.1.8s-.2.7-.4 1.2c-.2.4-.5.8-.8 1.3-.3.4-.8.8-1.3 1.1-.4.2-.7.3-1 .4-.3 0-.6 0-.8-.2s-.4-.4-.6-.8a4.44 4.44 0 0 1-.2-1.3v-.6-.6c0-.5.1-1.1.2-1.6s.3-1 .6-1.4c.2-.4.5-.8.8-1.2.3-.3.7-.6 1-.8.5-.3.9-.4 1.3-.4.3 0 .6.1.8.3s.3.4.4.7a1.76 1.76 0 0 1 .1.6c0 .1 0 .2-.1.3s-.1.2-.2.2l-1.3.7h-.2l-.1-.1c-.1-.1-.2-.2-.3-.2s-.3 0-.5.1c-.3.2-.5.4-.6.7l-.3 1.1zm9.7-1.5c0 .1 0 .2-.1.3s-.1.2-.2.2l-1.2.7h-.2c-.1 0-.1-.1-.1-.2v-3.8c0-.4-.1-.7-.2-.9s-.4-.2-.6 0c-.3.2-.5.4-.6.8a3.73 3.73 0 0 0-.2 1.2v3.8c0 .1 0 .2-.1.3s-.1.2-.2.2l-1.2.7h-.2c-.1 0-.1-.1-.1-.2v-9.9c0-.1 0-.2.1-.3s.1-.2.2-.2l1.2-.7h.2c.1 0 .1.1.1.2V62c.1-.3.3-.6.5-.9s.5-.6.8-.8.6-.3.9-.3.5.1.7.2c.2.2.3.4.4.8s.2.9.2 1.5v4.1z" class="a"/><path d="M246.1 130.3L346 72.6v8.9l-99.9 57.7z" class="b"/><g class="f"><path d="M249.5 149.4h.1v.2.7.2c0 .1-.1.1-.1.1l-2.7 1.6h-.1v-.2-6.1-.2c0-.1.1-.1.1-.1l2.7-1.5h.1v.2.7.2c0 .1-.1.1-.1.1l-2 1.1v1.5l1.9-1.1h.1v.2.7.2c0 .1-.1.1-.1.1l-1.9 1.1v1.6l2-1.3zm1.6-4.3c.1-.2.2-.4.4-.6.1-.2.3-.3.4-.4.3-.1.5-.2.6-.1a.78.78 0 0 1 .4.4c.1-.2.1-.3.2-.5a.76.76 0 0 0 .2-.4l.3-.3c.1-.1.2-.2.3-.2.2-.1.4-.2.6-.2s.3.1.4.3c.1.1.2.3.2.6 0 .2.1.5.1.8v2.5c0 .1 0 .1-.1.2 0 .1-.1.1-.1.1l-.5.3h-.1v-.2-2.4c0-.4-.1-.7-.2-.8s-.3-.1-.4 0c-.2.1-.3.3-.4.5s-.2.6-.2 1v2.5.2c0 .1-.1.1-.1.1l-.5.3h-.1v-.2-2.5c0-.4-.1-.7-.2-.8s-.3-.1-.4 0c-.2.1-.3.3-.4.5s-.2.6-.2 1v2.5.2c0 .1-.1.1-.1.1l-.5.3h-.1v-.2-4.4-.2c0-.1.1-.1.1-.1l.5-.3h.1v.2.2zm4.9-2c0-.1.1-.3.1-.5.1-.2.1-.4.3-.6.1-.2.2-.4.4-.6s.3-.3.6-.4c.2-.1.4-.2.6-.2s.3 0 .4.1.2.2.3.5c.1.2.1.5.1.8v2.8.2c0 .1-.1.1-.1.1l-.5.3h-.1v-.2-.3c-.1.2-.2.5-.4.7l-.6.6c-.2.1-.3.2-.5.2-.1 0-.3 0-.3-.1-.1-.1-.2-.2-.2-.3-.1-.2-.1-.3-.1-.5 0-.4.1-.8.3-1.2s.5-.7.8-1l1-.8c0-.3-.1-.4-.2-.5-.1 0-.2 0-.4.1-.1.1-.2.1-.2.2-.1.1-.1.2-.2.3 0 .1-.1.1-.1.2l-.1.1-.6.3h-.1c-.2-.2-.2-.2-.2-.3zm1 2.1c.1-.1.3-.2.4-.3s.2-.3.3-.4.1-.3.2-.4c0-.1.1-.3.1-.4v-.1l-.8.7c-.2.1-.3.3-.4.4s-.1.3-.1.4 0 .2.1.2c0 0 .1-.1.2-.1zm3.2-7.5h.1v.2.7.2c0 .1-.1.1-.1.1l-.5.3h-.1v-.2-.7-.2c0-.1.1-.1.1-.1l.5-.3zm.1 6.4v.2c0 .1-.1.1-.1.1l-.5.3h-.1v-.2-4.4-.2c0-.1.1-.1.1-.1l.5-.3h.1v.2 4.4zm1.6-1v.2c0 .1-.1.1-.1.1l-.5.3h-.1v-.2-6.2-.2c0-.1.1-.1.1-.1l.5-.3h.1v.2 6.2zm2.3-4.8c0-.1.1-.3.1-.5.1-.2.1-.4.3-.6.1-.2.2-.4.4-.6s.3-.3.6-.4c.2-.1.4-.2.6-.2s.3 0 .4.1.2.2.3.5c.1.2.1.5.1.8v2.8.2c0 .1-.1.1-.1.1l-.5.3h-.1v-.2-.3c-.1.2-.2.5-.4.7l-.6.6c-.2.1-.3.2-.5.2-.1 0-.3 0-.3-.1-.1-.1-.2-.2-.2-.3-.1-.1-.1-.3-.1-.5 0-.4.1-.8.3-1.2s.5-.7.8-1l1-.8c0-.3-.1-.4-.2-.5-.1 0-.2 0-.4.1-.1.1-.2.1-.2.2-.1.1-.1.2-.2.3 0 .1-.1.1-.1.2l-.1.1-.6.3h-.1c-.2-.1-.2-.2-.2-.3zm1 2.1c.1-.1.3-.2.4-.3s.2-.3.3-.4.1-.3.2-.4c0-.1.1-.3.1-.4v-.1l-.8.7c-.2.1-.3.3-.4.4s-.1.3-.1.4 0 .2.1.2c0 0 .1 0 .2-.1zm3.7-6.1c.1-.1.2-.1.3-.1h.3c.1 0 .1 0 .2.1.1 0 .1.1.1.1v-2-.2c0-.1.1-.1.1-.1l.5-.3h.1v.2 6.2.2c0 .1-.1.1-.1.1l-.5.3h-.1v-.2-.2c0 .1-.1.2-.1.3-.1.1-.1.2-.2.3l-.3.3-.3.3c-.2.1-.4.2-.6.1-.2 0-.3-.1-.4-.2s-.2-.3-.3-.6c-.1-.2-.1-.5-.1-.8v-.3-.3c0-.3 0-.6.1-.9l.3-.9c.1-.3.3-.5.4-.7.2-.4.4-.6.6-.7zm-.5 2.6v.5c0 .4.1.6.2.7s.3.1.5 0 .4-.3.5-.6.2-.6.2-.9v-.4-.4c0-.3-.1-.5-.2-.6s-.3-.1-.5 0-.4.3-.5.6c-.1.4-.2.7-.2 1.1zm4.3-4.8c.1-.1.2-.1.3-.1h.3c.1 0 .1 0 .2.1.1 0 .1.1.1.1v-2-.2c0-.1.1-.1.1-.1l.5-.3h.1v.2 6.2.2c0 .1-.1.1-.1.1l-.5.3h-.1v-.2-.2c0 .1-.1.2-.1.3-.1.1-.1.2-.2.3l-.3.3-.3.3c-.2.1-.4.2-.6.1-.2 0-.3-.1-.4-.2s-.2-.3-.3-.5-.1-.5-.1-.8v-.3-.3c0-.3 0-.6.1-.9l.3-.9c.1-.3.3-.5.4-.7.3-.5.4-.7.6-.8zm-.5 2.6v.5c0 .4.1.6.2.7s.3.1.5 0 .4-.3.5-.6.2-.6.2-.9v-.4-.4c0-.3-.1-.5-.2-.6s-.3-.1-.5 0-.4.3-.5.6c-.1.4-.2.7-.2 1.1zm4.6-3.7c-.2.1-.4.3-.5.6-.1.2-.2.5-.2.9v2.5.2c0 .1-.1.1-.1.1l-.5.3h-.1v-.2-4.4-.2c0-.1.1-.1.1-.1l.5-.3h.1v.2.2c.1-.2.2-.4.3-.5.1-.2.3-.3.5-.4l.3-.2h.1v.2.6.2c0 .1-.1.1-.1.1l-.4.2zm.9.8c0-.4 0-.7.1-1.1l.3-1c.1-.3.3-.6.5-.8l.6-.6c.2-.1.4-.2.6-.2s.3.1.5.2c.1.1.2.3.3.6s.1.5.1.9v.4.2c0 .1-.1.1-.1.1l-2.1 1.2c0 .1 0 .3.1.4 0 .1.1.2.2.2s.1.1.2 0c.1 0 .2 0 .3-.1s.2-.2.3-.2c.1-.1.1-.2.2-.3 0-.1.1-.1.1-.2l.1-.1.5-.3h.1v.2c0 .1 0 .2-.1.4s-.1.4-.3.6c-.1.2-.3.4-.4.6-.2.2-.4.4-.6.5s-.4.2-.6.2-.3-.1-.5-.3l-.3-.6c-.1-.2-.1-.5-.1-.9zm1.5-2.3l-.3.3c-.1.1-.2.2-.2.3-.1.1-.1.2-.1.4 0 .1-.1.2-.1.3l1.4-.8v-.3c0-.1-.1-.2-.1-.2-.1-.1-.1-.1-.2-.1-.2 0-.3 0-.4.1zm3.9.2v-.1h-.2c-.1 0-.2 0-.3.1-.1 0-.3.1-.5.1h-.4c-.1 0-.2-.1-.3-.2s-.1-.2-.1-.3v-.5c0-.2 0-.4.1-.6s.1-.4.2-.6.2-.4.4-.6.3-.3.5-.4.4-.2.5-.2h.4c.1.1.2.1.3.2s.1.2.1.4v.2c0 .1-.1.1-.1.1l-.5.3h-.1s-.1 0-.1-.1h-.1c-.1 0-.2 0-.3.1l-.3.3c-.1.1-.1.2-.1.4v.2l.1.1h.3c.1 0 .3-.1.4-.1.4-.1.6-.1.8.1.1.2.2.4.2.8 0 .2 0 .4-.1.6l-.3.6c-.1.2-.3.4-.4.6-.2.2-.4.3-.6.5-.2.1-.4.2-.6.2s-.3 0-.4-.1l-.3-.3c-.1-.1-.1-.3-.1-.4v-.2c0-.1.1-.1.1-.1l.5-.3h.1l.1.1s.1.1.2.1.2 0 .3-.1c.1 0 .1-.1.2-.1l.2-.2c.1-.1.1-.1.1-.2.1-.2.1-.3.1-.4z"/><path d="M286.3 127.9v-.1h-.2c-.1 0-.2 0-.3.1-.1 0-.3.1-.5.1h-.4c-.1 0-.2-.1-.3-.2s-.1-.2-.2-.3v-.5c0-.2 0-.4.1-.6s.1-.4.2-.6.2-.4.4-.6.3-.3.5-.4.4-.2.5-.2h.4c.1 0 .2.1.3.2s.1.2.1.4v.2c0 .1-.1.1-.1.1l-.5.3h-.1s-.1 0-.1-.1h-.1c-.1 0-.2 0-.3.1l-.3.3c-.1.1-.1.2-.1.4v.2l.1.1h.3c.1 0 .3-.1.4-.1.4-.1.6-.1.8.1.1.2.2.4.2.8 0 .2 0 .4-.1.6l-.3.6c-.1.2-.3.4-.4.6-.2.2-.4.3-.6.5-.2.1-.4.2-.6.2s-.3 0-.4-.1l-.3-.3c-.1-.1-.1-.3-.1-.4v-.2c0-.1.1-.1.1-.1l.5-.3h.1l.1.1s.1.1.2.1.2 0 .3-.1c.1 0 .1-.1.2-.1l.2-.2c.1-.1.1-.1.1-.2.2-.3.2-.3.2-.4z"/></g><path d="M246.1 156.9L346 99.2v8.9l-99.9 57.7z" class="b"/><path d="M248.6 174.5l1.2-3.8s0-.1.1-.2c0-.1.1-.2.2-.2l.4-.2h.1v.2 6.1.2c0 .1-.1.1-.1.1l-.5.3h-.1s-.1-.1-.1-.2v-3.7l-.8 2.6c0 .1 0 .1-.1.2 0 .1-.1.1-.1.2l-.3.2h-.1l-.1-.1-.8-1.7v3.7.2c0 .1-.1.1-.1.1l-.5.3h-.1v-.2-6.1-.2c0-.1.1-.1.1-.1l.4-.2h.2l.1.1 1 2.4zm2.8-.9c0-.4 0-.7.1-1.1l.3-1c.1-.3.3-.6.5-.8l.6-.6c.2-.1.4-.2.6-.2s.3.1.5.2c.1.1.2.3.3.6s.1.5.1.9v.4.2c0 .1-.1.1-.1.1l-2.1 1.2c0 .1 0 .3.1.3 0 .1.1.2.2.2s.1.1.2 0c.1 0 .2 0 .3-.1s.2-.2.3-.2c.1-.1.1-.2.2-.3 0-.1.1-.1.1-.2l.1-.1.5-.3h.1s.1.1 0 .2c0 .1 0 .2-.1.4s-.1.4-.3.6c-.1.2-.3.4-.4.6-.2.2-.4.4-.6.5s-.4.2-.6.2-.3-.1-.5-.3l-.3-.6c-.1-.1-.1-.4-.1-.8zm1.5-2.2l-.3.3c-.1.1-.2.2-.2.3-.1.1-.1.2-.1.4 0 .1-.1.2-.1.3l1.4-.8v-.3c0-.1-.1-.2-.1-.2-.1-.1-.1-.1-.2-.1-.2-.1-.3 0-.4.1zm3.9.2v-.1h-.2c-.1 0-.2 0-.3.1-.1 0-.3.1-.5.1h-.4c-.1 0-.2-.1-.3-.2s-.1-.2-.1-.3v-.5c0-.2 0-.4.1-.6s.1-.4.2-.6.2-.4.4-.6.3-.3.5-.4.4-.2.5-.2h.4c.1 0 .2.1.3.2s.1.2.1.4v.2c0 .1-.1.1-.1.1l-.5.3h-.1s-.1 0-.1-.1h-.1c-.1 0-.2 0-.3.1l-.3.3c-.1.1-.1.2-.1.4v.2l.1.1h.3c.1 0 .3-.1.4-.1.4-.1.6-.1.8.1.1.2.2.4.2.8 0 .2 0 .4-.1.6l-.3.6c-.1.2-.3.4-.4.6-.2.2-.4.3-.6.5-.2.1-.4.2-.6.2s-.3 0-.4-.1l-.3-.3c-.1-.1-.1-.3-.1-.4v-.2c0-.1.1-.1.1-.1l.5-.3h.1l.1.1s.1.1.2.1.2 0 .3-.1c.1 0 .1-.1.2-.1l.2-.2c.1-.1.1-.1.1-.2.1-.3.1-.4.1-.4zm3.2-1.9v-.1h-.2c-.1 0-.2 0-.3.1-.1 0-.3.1-.5.1h-.4c-.1 0-.2-.1-.3-.2s-.1-.2-.1-.3v-.5c0-.2 0-.4.1-.6s.1-.4.2-.6.2-.4.4-.6.3-.3.5-.4.4-.2.5-.2h.4c.1 0 .2.1.3.2s.1.2.1.4v.2c0 .1-.1.1-.1.1l-.5.3h-.1s-.1 0-.1-.1h-.1c-.1 0-.2 0-.3.1l-.3.3c-.1.1-.1.2-.1.4v.2l.1.1h.3c.1 0 .3-.1.4-.1.4-.1.6-.1.8.1.1.2.2.4.2.8 0 .2 0 .4-.1.6l-.3.6c-.1.2-.3.4-.4.6-.2.2-.4.3-.6.5-.2.1-.4.2-.6.2s-.3 0-.4-.1l-.3-.3c-.1-.1-.1-.3-.1-.4v-.2c0-.1.1-.1.1-.1l.5-.3h.1l.1.1s.1.1.2.1.2 0 .3-.1c.1 0 .1-.1.2-.1l.2-.2c.1-.1.1-.1.1-.2.1-.2.1-.3.1-.4zm1.5-3.1c0-.1.1-.3.1-.5.1-.2.1-.4.3-.6.1-.2.2-.4.4-.6s.3-.3.6-.4c.2-.1.4-.2.6-.2s.3 0 .4.1.2.2.3.5c.1.2.1.5.1.8v2.8.2c0 .1-.1.1-.1.1l-.5.3h-.1v-.2-.3c-.1.2-.2.5-.4.7l-.6.6c-.2.1-.3.2-.5.2-.1 0-.3 0-.3-.1-.1-.1-.2-.2-.2-.3-.1-.2-.1-.3-.1-.5 0-.4.1-.8.3-1.2s.5-.7.8-1l1-.8c0-.3-.1-.4-.2-.5-.1 0-.2 0-.4.1-.1.1-.2.1-.2.2-.1.1-.1.2-.2.3 0 .1-.1.1-.1.2l-.1.1-.6.3h-.1c-.2-.2-.2-.3-.2-.3zm1 2c.1-.1.3-.2.4-.3s.2-.3.3-.4.1-.3.2-.4c0-.1.1-.3.1-.4v-.1l-.8.7c-.2.1-.3.3-.4.4s-.1.3-.1.4 0 .2.1.2c0 0 .1 0 .2-.1zm3.9-.2c.1 0 .2-.1.3-.2s.2-.2.2-.3c.1-.1.1-.3.2-.4 0-.2.1-.3.1-.5v-.3c0 .1-.1.2-.1.3-.1.1-.1.2-.2.3l-.3.3-.3.3c-.2.1-.4.2-.6.1-.2 0-.3-.1-.4-.2s-.2-.3-.3-.5-.1-.5-.1-.8v-.3-.3c0-.3 0-.6.1-.9l.3-.9c.1-.3.3-.5.4-.7.2-.2.4-.4.6-.5.1-.1.2-.1.3-.1h.3c.1 0 .1 0 .2.1.1 0 .1.1.1.1v-.2-.2c0-.1.1-.1.1-.1l.5-.3h.1v.2 4.4c0 .8-.1 1.4-.4 2-.3.5-.7 1-1.1 1.2-.2.1-.4.2-.6.2s-.3 0-.5-.1l-.3-.3c-.1-.1-.1-.3-.1-.5v-.2c0-.1.1-.1.1-.1l.4-.2h.1l.1.1c.1.1.1.1.2.1a1.13 1.13 0 0 1 .6-.6zm-.8-3.3v.5c0 .4.1.6.2.7s.3.1.5 0 .4-.3.5-.6.2-.6.2-.9v-.4-.4c0-.3-.1-.5-.2-.6s-.3-.1-.5 0-.4.3-.5.6c-.1.4-.1.7-.2 1.1zm3-1.4c0-.4 0-.7.1-1.1l.3-1c.1-.3.3-.6.5-.8l.6-.6c.2-.1.4-.2.6-.2s.3.1.5.2c.1.1.2.3.3.6s.1.5.1.9v.4.2c0 .1-.1.1-.1.1l-2.1 1.2c0 .1 0 .3.1.3 0 .1.1.2.2.2s.1.1.2 0c.1 0 .2 0 .3-.1s.2-.2.3-.2c.1-.1.1-.2.2-.3 0-.1.1-.1.1-.2l.1-.1.5-.3h.1s.1.1 0 .2c0 .1 0 .2-.1.4s-.1.4-.3.6c-.1.2-.3.4-.4.6-.2.2-.4.4-.6.5s-.4.2-.6.2-.3-.1-.5-.3l-.3-.6c0-.1-.1-.4-.1-.8zm1.5-2.3l-.3.3c-.1.1-.2.2-.2.3-.1.1-.1.2-.1.4 0 .1-.1.2-.1.3l1.4-.8v-.3c0-.1-.1-.2-.1-.2-.1-.1-.1-.1-.2-.1s-.2 0-.4.1z" class="f"/><path d="M246.1 183.6l99.9-57.7v31l-99.9 57.8zM211.5 68.4L95.7 135.2c-1.4.8-2.6 2.9-2.6 4.5v257.1c0 1.7 1.2 3.7 2.6 4.5l1.6.9c1.4.8 3.8.8 5.2 0l115.7-66.8c1.4-.8 2.6-2.9 2.6-4.5v-257c0-1.7-1.2-3.7-2.6-4.5l-1.6-.9c-1.4-.9-3.7-.9-5.1-.1z" class="b"/><path d="M220.9 331c0 2.3-1.6 3.8-3.6 4.9l-113.7 65.7c-2 1.1-3.6.2-3.6-2.1V144.7h0c0-2.6 1.4-4.9 3.6-6.2l113.8-65.7c1.6-.9 3.6.2 3.6 2.1h0V331z" class="c"/><path d="M218.5 73.5h0c.7 0 1.4.5 1.4 1.4V331c0 1.6-1 2.8-3.1 4l-113.7 65.7c-.4.2-.8.4-1.1.4-.9 0-1-1-1-1.6V144.7c0-2.2 1.2-4.2 3.1-5.3l113.8-65.7c.1-.2.4-.2.6-.2m0-1c-.4 0-.8.1-1.2.3l-113.8 65.7c-2.2 1.3-3.6 3.6-3.6 6.2v254.8c0 1.6.8 2.6 2 2.6.5 0 1-.2 1.6-.5l113.7-65.7c2-1.1 3.6-2.6 3.6-4.9V74.9c.1-1.4-1-2.4-2.3-2.4h0z" class="b"/><path d="M220.9 73.8v1c0-1.8-2-3-3.6-2.1l-113.8 65.7c-1.1.6-2 1.5-2.6 2.6v.1l-7-4.1c.5-.8 1.1-1.6 1.9-2l115.7-66.7c1.4-.8 3.8-.8 5.2 0l1.6.9c1.4 1 2.6 3 2.6 4.6z" class="h"/><g class="f"><path d="M122.2 142.1v-.2-.8l-1.3.8c-.1 0-.1 0-.1-.1v-.3-.2-.2l1.4-3.8c0-.1 0-.1.1-.1 0 0 0-.1.1-.1l.2-.1h.1v.2 2.9l.3-.2h.1v.2.2.2c0 .1-.1.1-.1.1l-.3.2v.8.2c0 .1-.1.1-.1.1l-.2.1c-.2.2-.2.2-.2.1zm0-1.7v-2.1l-1 2.6 1-.5z"/><path d="M123.7 140.7c-.3-.3-.4-.9-.4-1.7s.1-1.6.4-2.2.6-1 1.1-1.3c.2-.1.4-.2.5-.2.2 0 .3 0 .4.1v.1.1l-.1.4v.1h-.1c-.2-.1-.4 0-.7.1-.3.2-.6.5-.7.9-.2.4-.3 1-.3 1.6s.1 1.1.3 1.3.4.2.7.1c.1-.1.2-.1.3-.2l.3-.3v-1.4l-.5.3h-.1v-.2-.2-.2l.1-.1.9-.5h.1v.2 1.9.2s0 .1-.1.1c-.3.4-.6.8-1 1-.4.3-.8.3-1.1 0zm11.1-6.7c0 .6-.3 1.4-.8 1.6-.4.2-.8-.1-.8-.7s.3-1.4.8-1.6.8.1.8.7zm-.8-2.6c-.8.4-1.4 1.5-1.8 2.7-.1.2 0 .5.1.5h0c.1.1.4-.1.4-.4.2-.8.7-1.6 1.2-1.9a.78.78 0 0 1 1.2.4c.1.2.3.1.4-.1h0c.1-.2.1-.5.1-.6-.1-.8-.8-1.1-1.6-.6zm0-1.9c-1.1.7-2.1 2.2-2.7 3.9-.1.3-.1.5.1.6h0c.1.1.3-.1.4-.4.5-1.4 1.3-2.6 2.2-3.2.9-.5 1.8-.3 2.2.6.1.2.3.1.4-.1h0c.1-.2.1-.5.1-.7-.5-1-1.5-1.4-2.7-.7zm25.9-12.3c0-.1 0-.1 0 0 .1 0 .1.1.1.1v.8.2c0 .1-.1.1-.1.1l-.5.3h-.1v-.1-.8-.2c0-.1.1-.1.1-.1l.5-.3zm0 2.7c.1 0 .1.1.1.1v.8.2c0 .1-.1.1-.1.1l-.5.3h-.1v-.1-.8-.2c0-.1.1-.1.1-.1l.5-.3zm2.6-.4c-.1 0-.1-.1-.1-.1v-.9l-1.6.9h-.1v-.1-.6-.2c0-.1 0-.1.1-.2l1.5-3.9c.1-.2.1-.3.2-.3l.4-.2h.1v.1 3.1l.4-.3h.1v.1.6.2c0 .1-.1.1-.1.1l-.4.3v.9.2c0 .1-.1.1-.1.1l-.4.2zm-.1-2v-1.7l-.9 2.2.9-.5zm-5 5c-.1 0-.1 0 0 0-.1 0-.1-.1-.1-.1v-.9l-1.6.9h-.1v-.1-.6-.2c0-.1 0-.1.1-.2l1.5-3.9c.1-.2.1-.3.2-.3l.4-.2h.1v.1 3.1l.4-.3h.1v.1.6.2c0 .1-.1.1-.1.1l-.4.3v.9.2c0 .1-.1.1-.1.1l-.4.2zm-.2-2.1v-1.7l-.9 2.2.9-.5zm7.4-7.3v-.2c0-.1.1-.1.1-.1l1.9-1.1h.1v.1.6.2c0 .1-.1.1-.1.1l-1.4.8-.1 1 .3-.3c.1-.1.2-.1.2-.1.2-.1.4-.2.5-.2.2 0 .3 0 .4.1a1.38 1.38 0 0 1 .3.4c.1.2.1.4.1.7s0 .6-.1.9-.2.5-.3.7-.3.4-.4.6c-.2.2-.3.3-.5.4s-.4.2-.6.2-.3 0-.4-.1-.2-.2-.2-.3c-.1-.2-.1-.3-.1-.5v-.2c0-.1.1-.1.1-.1l.4-.2h.1s0 .1.1.1c0 .1.1.2.1.2 0 .1.1.1.2.1h.2c.1 0 .1-.1.2-.1.2-.1.3-.3.5-.5.1-.2.2-.5.2-.8 0-.2-.1-.4-.2-.5s-.3-.1-.5 0c-.1.1-.2.1-.2.2-.1.1-.1.1-.1.2s-.1.1-.1.1l-.1.1-.5.3h-.1v-.1-2.7zm-56.9 38v-1.6l1.4-.8v1.6zm2.1-1.2v-3.2l1.4-.8v3.2zm2.1-1.2v-4.8l1.4-.9v4.9zm2.1-1.2V141l1.4-.8v6.5zm98.4-62.1c-.1-.2-.3-.3-.5-.2l-5.2 3c-.3.2-.6.9-.6 1.6v2.9c0 .4.1.7.2.9.1.1.1.2.2.2h.3l5.2-3c.3-.2.6-.9.6-1.6v-2.9a2.39 2.39 0 0 0-.2-.9zm-6 8c-.1-.1-.1-.2-.1-.4v-3c0-.5.2-1.1.5-1.2l5.2-3h.2l.1.1c.1.1.1.2.1.4v2.9c0 .5-.2 1.1-.5 1.2l-5.2 3h-.3zm1.4-4.7v3.5l-.8.5c-.1 0-.2 0-.2-.1V90c0-.4.2-.8.3-.9l.7-.4zm.4-.2l.9-.6v3.5l-.9.6zm1.3-.8l1-.6v3.5l-1 .6zm2.4-1.1v2.5c0 .5-.3.9-.7 1.1l-.3.2v-3.5l.8-.5c.1 0 .2.1.2.2z"/><path d="M212.8 86.3c.1-.1.3.3.3.9v.5c0 .6-.1 1.2-.3 1.3l-.3.2v-2.8c.1 0 .2 0 .3-.1zm-14.7 8.9l5.1-4.6-1.6 6.7-.7-2.8z"/></g><path d="M110.1 158l81.9-47.3c1.4-.8 2.5-.1 2.5 1.4v7.6c0 1.6-1.1 3.5-2.5 4.3l-81.9 47.3c-1.4.8-2.5.1-2.5-1.4v-7.6c0-1.6 1.1-3.5 2.5-4.3z" class="a"/><g class="b"><path d="M200.6 118.1c-.3 0-.6-.2-.8-.5-.3-.5-.1-1 .3-1.3L211 110c.5-.3 1-.1 1.3.3.3.5.1 1-.3 1.3l-10.8 6.3c-.2.2-.4.2-.6.2z"/><path d="M200.6 113.4c-.3 0-.6-.2-.8-.5-.3-.5-.1-1 .3-1.3l10.8-6.3c.5-.3 1-.1 1.3.3.3.5.1 1-.3 1.3l-10.8 6.3c-.1.2-.3.2-.5.2z"/><path d="M200.6 108.8c-.3 0-.6-.2-.8-.5-.3-.5-.1-1 .3-1.3l10.8-6.3c.5-.3 1-.1 1.3.3.3.5.1 1-.3 1.3l-10.8 6.3c-.1.1-.3.2-.5.2z"/></g><path d="M100 344.8v54.8c0 2.2 1.6 3.1 3.5 2l34.3-19.8 3.3-1.9 26.5-15.3.4-12.3.2-5.7-68.2-1.8z" class="f"/><path d="M206.5 271.1c.3-.9.5-3.2.6-4.2.6-6.8 4.1-12.9 7.9-18.4.6-.9 1.3-1.9 2-2.8.3-.5.7-.9.9-1.4s.5-.8 1.1-.7c.5.1.8.4 1.1.8.9 1.3 1 3 .7 4.5s-1 2.9-1.6 4.4c-.5 1.1.9.8 1.5.5 2.9-1.2 5.9-5.3 7.7-7.9 1.2-1.7 2.1-3.5 3.6-5 .9-.9 2-1.6 3.3-1.9.9-.2 1.7 0 1.8 1.1.1.7-.3 1.3-.5 1.9-.5 1.3-1 2.4-.4 3.8.4.9.9 1.7 1 2.6.2 1.2-.4 2.3-.3 3.5 0 1.1.6 1.9.8 2.9.1 1.1-.5 2.5-.9 3.5-.9 2.3-2.1 4.5-3.5 6.5-2.2 3.1-4.9 5.8-7.6 8.3-1.5 1.4-3.2 2.9-4 4.8-.8 2-1.3 4-1.7 6.1l-1.6 7.8c-5.7 28-8.6 29.5-12.3 33.7-2.2 2.5-8.6 4.9-17.2-4-9.6-9.9-27.9-35.5-27.9-35.5l-3.8-34.2 7.7 2.1c4 1.1 8.3 5.2 11.1 9.7l21.2 33.7 9.3-26.2z" fill="#ffbda7"/><use xlink:href="#J" class="a"/><use xlink:href="#J" class="i"/><path d="M197 297.3c-3.4 6.9-4.3 15.3-4.3 15.3s-1.9-10.6 2.3-18.5l2 3.2zm21.6-39.5c.4 3.9-1.2 9.1-2.6 11.1 0 0 2.6-2.4 3.2-5.3.7-3.1.2-4.5-.6-5.8z" class="l"/><path d="M169.2 352.5c-13.2 9.4-56.6 12.5-69.3 4.1v-61.2V256v-1l1-.2 12.4-2.6 6.7-1.4 1.7-.4h0l6-1.3 15.6.9h0l4.7.3h0 .5l11.1 1.6.6.6h0c3.9 4.2 7.3 15 8.3 26.5.4 4.4.6 11 .8 18.4v.7c.7 22.9-.1 54.4-.1 54.4z" class="a"/><path d="M159.1 211.8c2.8-6.4.1-14.8-3.3-18.8-4.8-5.7-12.2-8.2-23.5-7.5-8.5.5-17 4.1-18.6 12.8-6.9 2-6.1 13.3-4.4 18.3 3.5 10.1 10.3 18.9 10.4 24l39.4-28.8z" class="f"/><path d="M159.1 235.5c-1.3 4.9-4.2 8.4-8.7 9.2-2.7.4-7.1 0-7.1 0l.2 6.2c6.1 5.2 3.8 12-.2 18.2-5-5.6-10.8-7.6-15.8-9.8s-7.3-7.1-7.3-7.1l-.6-21s-2.8 3.1-7.3.2c-3.1-2-5.4-7.3-3.1-12.1s6.8-2.8 8.2-1.3c1.4 1.4 3 4.2 4.2 3.8 1.8-.6 2.3-1.7 2.8-2.9.8-2 1.4-4.7 1.5-9.2 1.3-.6 2.5-1.6 3.5-2.7 1.9-2.2 3-4.7 3.1-7.1 9.7-3.1 20.9-1.6 25 1.5 2.3 4.1 2.4 13.6 2.8 19.1.2 6-.1 11-1.2 15z" fill="#ffbda7"/><path d="M143.3 244.7c-5-.3-15-2.6-17.7-5.4s-3.8-8.5-3.8-8.5.4 7.2 2.5 10.4 7.3 4.6 10.4 5.3c3.2.8 8.7 1.3 8.7 1.3l-.1-3.1z" class="l"/><use xlink:href="#K" class="a"/><use xlink:href="#K" class="i"/><use xlink:href="#L" class="a"/><use xlink:href="#L" class="i"/><path d="M140.1 217.3c0 1.2-.9 2.1-2 2.1s-2-.9-2-2.1.9-2.1 2-2.1 2 1 2 2.1z" class="e"/><path d="M137.3 210.9l-4.1 2.8c-.7-1.2-.4-2.7.7-3.5 1.2-.8 2.7-.5 3.4.7zm19.6 1.9l-4.5-2.1c.5-1.3 2-1.8 3.2-1.2 1.3.5 1.8 2 1.3 3.3z" class="j"/><path d="M155.4 217.2c0 1.2-.9 2.1-2 2.1s-2-.9-2-2.1.9-2.1 2-2.1 2 .9 2 2.1z" class="e"/><path d="M144.8 213l1.4 14.5 7.8-2.4z" class="l"/><path d="M140.1 230.9l8.3 1.8c-.5 2.4-2.7 3.9-5 3.4-2.2-.5-3.7-2.9-3.3-5.2z" class="k"/><path d="M143.5 236.1a.9.9 0 0 1 .5.1c-.1-2.1-1.8-3.8-3.9-3.8.3 1.8 1.5 3.3 3.4 3.7z" fill="#f28f8f"/><path d="M103 288.1l-3.1 7.4v-39.4-1c.1 0 8.7 16.6 3.1 33z" class="a"/><path d="M103 288.1l-3.1 7.4v-39.4-1c.1 0 8.7 16.6 3.1 33z" class="i"/><path d="M160.3 224.7s2.8.9 5.4 2.5c2.6 1.7 2.7 4.6 1.7 6.5l-2.1-.4s1.1-2.4-.2-3.7c-1.2-1.3-4.9-2.4-4.9-2.4l.1-2.5z" class="e"/><use xlink:href="#M" class="a"/><use xlink:href="#M" opacity=".1"/><path d="M118.1 189c-5 4.6-9.8 11.2-6.2 26.3-2.1 1.9-3 5.2-2.1 8.5 1.4 4.7 5.9 7.8 10 6.9 4.2-.9 6.4-5.4 5.1-10.1-1-3.5-4.8-6.9-7.9-6.7 0 0-3-6.5-.2-15.7 3.8-12.5 18.4-13.5 24.8-12.5-2.1-2.9-16.9-2.8-23.5 3.3z" class="e"/><use xlink:href="#N" class="a"/><use xlink:href="#N" class="g"/><use xlink:href="#O" class="a"/><use xlink:href="#O" opacity=".1"/><path d="M119.5 222.7c-.7-2.4-3.1-4.1-5.2-3.6-2.2.5-3.4 2.8-2.7 5.3.7 2.4 3.1 4.1 5.2 3.6 2.2-.5 3.4-2.9 2.7-5.3z" class="j"/><path d="M177.3 165.1c-.2.1-.4.3-.6.5s-.3.4-.4.6-.2.5-.2.7-.1.5-.1.7v.6.7.7.6c0 .2 0 .4.1.6s.1.3.2.4.2.2.4.2.3-.1.6-.2c.2-.1.3-.2.5-.4s.3-.3.4-.5.2-.4.3-.7.1-.5.1-.9l-.9.5h-.2c-.1-.1-.1-.1-.1-.2v-1.7c0-.1 0-.2.1-.3s.1-.2.2-.2l2.5-1.4h.2c.1.1.1.1.1.2v2c0 .7-.1 1.3-.2 1.9-.2.6-.4 1.2-.7 1.7s-.6 1-1 1.4-.8.8-1.2 1c-.5.3-.9.4-1.3.4a1.69 1.69 0 0 1-1-.3c-.3-.2-.5-.6-.6-1s-.2-.9-.2-1.5v-1.4-1.4c0-.6.1-1.2.2-1.8s.4-1.2.6-1.7l1-1.5c.4-.4.8-.8 1.3-1.1s.9-.4 1.3-.4a1.69 1.69 0 0 1 1 .3c.3.2.5.4.6.7s.2.6.2 1c0 .1 0 .2-.1.3 0 .1-.1.2-.2.2l-1.3.8c-.1.1-.2.1-.2 0l-.2-.2a1.38 1.38 0 0 0-.4-.3c-.3.1-.5.2-.8.4zm5.7 2c0 .2 0 .4.1.5s.1.2.2.2.2.1.3 0c.1 0 .2-.1.3-.1.2-.1.4-.2.5-.4.1-.1.2-.3.3-.4s.1-.2.2-.3c0 0 .1-.1.2-.1l1.3-.8c.1-.1.2 0 .2.2 0 .1-.1.3-.2.7-.1.3-.3.7-.5 1.1s-.5.8-.8 1.2-.7.7-1.2 1a1.92 1.92 0 0 1-1.2.4c-.3 0-.6-.1-.9-.3-.2-.2-.4-.6-.5-1-.1-.5-.2-1-.2-1.7 0-.6.1-1.2.2-1.8s.3-1.1.5-1.6.5-1 .9-1.4c.3-.4.7-.7 1.2-1s.9-.4 1.3-.3c.3.1.6.2.9.5.2.3.4.6.5 1.1.1.4.1.9.1 1.4v.4c0 .1 0 .2-.1.3s-.1.2-.2.2l-3.4 2zm.9-3.5c-.3.2-.5.4-.6.8l-.3 1 1.8-1.1c0-.3-.1-.5-.3-.7-.1-.1-.3-.1-.6 0zm6.1-.5c0 .2 0 .4.1.5s.2.1.3 0l.8-.5h.2c.1.1.1.1.1.3v1.6c0 .1 0 .2-.1.3s-.1.2-.2.2l-1 .6c-.3.2-.6.3-.9.3s-.5-.1-.7-.2c-.2-.2-.3-.4-.4-.7a3.73 3.73 0 0 1-.2-1.2v-2.6l-.8.4h-.2c-.1-.1-.1-.1-.1-.3v-1.6c0-.1 0-.2.1-.3s.1-.2.2-.2l.8-.4v-2.5c0-.1 0-.2.1-.3s.1-.2.2-.2l1.3-.7h.2c.1.1.1.1.1.2v2.5l1.1-.7h.2c.1.1.1.1.1.2v1.6c0 .1 0 .2-.1.3s-.1.2-.2.2l-1.1.7v2.5zm6.3-9.9c0 .1 0 .2-.1.3s-.1.2-.2.2l-1.3.7h-.2c-.1-.1-.1-.1-.1-.2v-1.6c0-.1 0-.2.1-.3s.1-.2.2-.2l1.3-.7h.2c.1.1.1.1.1.2v1.6zm0 9c0 .1 0 .2-.1.3s-.1.2-.2.2l-1.3.7h-.2c-.1-.1-.1-.1-.1-.2V156c0-.1 0-.2.1-.3s.1-.2.2-.2l1.3-.7h.2c.1.1.1.1.1.2v7.2zm6.6-3.8c0 .1 0 .2-.1.3s-.1.2-.2.2l-1.3.7h-.2c-.1-.1-.1-.1-.1-.2v-3.9c0-.4-.1-.8-.2-1s-.4-.2-.7 0a1.85 1.85 0 0 0-.7.8c-.1.4-.2.7-.2 1.2v3.9c0 .1 0 .2-.1.3s-.1.2-.2.2l-1.3.7h-.2c-.1-.1-.1-.1-.1-.3V154c0-.1 0-.2.1-.3s.1-.2.2-.2l1.2-.7h.2c.1.1.1.1.1.2v.4c.1-.1.1-.3.2-.4.1-.2.2-.3.3-.5a.78.78 0 0 1 .4-.4c.2-.1.3-.3.5-.4.3-.2.6-.3.9-.3s.5.1.7.2c.2.2.3.5.5.8.1.4.2.9.2 1.5v4.5zM175 187.6c0 .2 0 .4.1.5s.2.1.3 0l.8-.5h.2c.1.1.1.1.1.2v1.6c0 .1 0 .2-.1.3s-.1.2-.2.2l-1 .6c-.3.2-.6.3-.9.3s-.5-.1-.7-.2c-.2-.2-.3-.4-.4-.7a3.73 3.73 0 0 1-.2-1.2v-2.6l-.7.4h-.2c-.1-.1-.1-.1-.1-.2v-1.6c0-.1 0-.2.1-.3s.1-.2.2-.2l.7-.4v-2.5c0-.1 0-.2.1-.3s.1-.2.2-.2l1.3-.7h.2c.1.1.1.1.1.2v2.5l1.1-.7h.2c.1.1.1.1.1.3v1.6c0 .1 0 .2-.1.3s-.1.2-.2.2l-1 .5v2.6zm7.6-6v.6.6c0 .5-.1 1-.2 1.5s-.3 1-.6 1.5c-.2.5-.5.9-.9 1.3-.3.4-.7.7-1.1.9s-.8.4-1.1.4-.6-.1-.9-.3c-.2-.2-.4-.5-.6-.8-.1-.4-.2-.8-.2-1.3v-.6-.6c0-.5.1-1 .2-1.5s.3-1 .6-1.5c.2-.5.5-.9.9-1.3.3-.4.7-.7 1.1-.9s.8-.4 1.1-.4.6.1.9.3c.2.2.4.5.6.8.2.4.2.9.2 1.3zm-3.6 3.3c0 .4.1.6.3.8.2.1.4.1.7 0 .3-.2.5-.4.7-.7s.3-.7.3-1.1v-.5-.5c0-.4-.1-.6-.3-.8-.2-.1-.4-.1-.7 0-.3.2-.5.4-.7.7s-.3.7-.3 1.1v.5a.45.45 0 0 0 0 .5zm4.6-6.8c0-.1 0-.2.1-.3s.1-.2.2-.2l1.3-.7h.2c.1.1.1.1.1.3v3.9c0 .4.1.8.2 1s.3.2.6 0 .5-.4.6-.8a3.73 3.73 0 0 0 .2-1.2v-3.9c0-.1 0-.2.1-.3s.1-.2.2-.2l1.3-.7h.2c.1.1.1.1.1.2v7.3c0 .1 0 .2-.1.3s-.1.2-.2.2l-1.2.7h-.2c-.1-.1-.1-.1-.1-.2v-.4c-.1.1-.1.3-.2.4-.1.2-.2.3-.3.5a.78.78 0 0 1-.4.4c-.2.1-.3.3-.5.4-.7.4-1.2.4-1.6 0-.4-.3-.6-1.1-.6-2.4v-4.3zm8-1.6v.6.5c0 .4.1.6.3.7s.4.1.6 0 .4-.3.5-.4l.3-.6c0-.1.1-.2.1-.3s.1-.2.2-.2l1.3-.8h.2c.1 0 .1.1.1.3s-.1.4-.1.8c-.1.4-.2.8-.4 1.2a9.13 9.13 0 0 1-.8 1.3c-.3.4-.8.8-1.3 1.1-.4.2-.7.3-1.1.4-.3 0-.6-.1-.9-.2-.2-.2-.4-.4-.6-.8-.1-.4-.2-.8-.2-1.4v-.6-.6c0-.6.1-1.1.2-1.6s.3-1 .6-1.5a2.73 2.73 0 0 1 .9-1.2c.3-.4.7-.6 1.1-.9.5-.3 1-.4 1.3-.4s.6.2.8.4.3.4.4.7.1.5.1.7c0 .1 0 .2-.1.3s-.1.2-.2.2l-1.3.8h-.2s-.1-.1-.1-.2c-.1-.1-.2-.2-.3-.2s-.3 0-.5.1c-.3.2-.5.4-.6.7-.2.4-.2.7-.3 1.1zm9.9-1.5c0 .1 0 .2-.1.3s-.1.2-.2.2l-1.3.7h-.2c-.1-.1-.1-.1-.1-.3V172c0-.4-.1-.8-.2-1s-.4-.2-.7 0a1.85 1.85 0 0 0-.7.8c-.1.4-.2.7-.2 1.2v3.9c0 .1 0 .2-.1.3s-.1.2-.2.2l-1.3.7h-.2c-.1-.1-.1-.1-.1-.2v-10.2c0-.1 0-.2.1-.3s.1-.2.2-.2l1.3-.7h.2c.1.1.1.1.1.2v3.3c.1-.3.3-.6.5-.9s.5-.6.8-.8.6-.3.9-.3.5.1.7.2c.2.2.3.5.5.8.1.4.2.9.2 1.5v4.5zm3-5.1c0 .1 0 .2-.1.3s-.1.2-.2.2l-1.3.7h-.2c-.1-.1-.1-.1-.1-.2v-6.7c0-.1 0-.2.1-.3s.1-.2.2-.2l1.3-.7h.2c.1.1.1.1.1.2v6.7zm0 3.4c0 .1 0 .2-.1.3s-.1.2-.2.2l-1.3.7h-.2c-.1-.1-.1-.1-.1-.2v-1.6c0-.1 0-.2.1-.3s.1-.2.2-.2l1.3-.7h.2c.1.1.1.1.1.3v1.5z" class="f"/><path d="M170.2 209.4c-.5 0-.9-.2-1.1-.6-.3-.5-.2-1.1.2-1.6 1.9-1.9 3-4.6 3.5-8.1-6.3-1.3-10-6.7-10-14.6 0-14 11.4-31.9 25.3-40h0c7.4-4.3 14.5-5.1 19.5-2.3 4.1 2.4 6.3 7 6.3 13.2 0 14-11.4 31.9-25.3 40-1.9 1.1-3.9 2-5.8 2.7-3.3 7.4-8.5 10.3-12.2 11.3h-.4zm18.4-64.2c-13.7 7.9-24.9 25.5-24.9 39.2 0 7.7 3.5 12.8 9.7 13.8l.4.1-.1.4c-.5 4-1.8 6.9-3.8 9a.47.47 0 0 0-.1.6c0 .1.2.3.5.2 3.6-1 8.6-3.7 11.8-11l.1-.2.2-.1c1.9-.6 3.9-1.5 5.8-2.7 13.7-7.9 24.9-25.5 24.9-39.2 0-5.9-2.1-10.3-5.9-12.5-4.6-2.6-11.4-1.7-18.6 2.4h0z" class="a"/><path d="M323 396.5c-.4 1.1-.5 3.4-.1 4.1.4.8 2.9 3.5 7.9 4.5s11.9 0 14.9-.2 12.3 1 15.3 1.4c4.7.6 8.2-.4 10-2.1.7-.7.7-1.6.7-2.5-.1-2-.3-2.4-.5-3.3l-48.2-1.9z" class="e"/><path d="M370.4 393.6l.3 1.2c.4 1.9.7 4.1.4 6-.6 1.5-2.3 2.3-3.6 2.7-3.5 1.1-6.2.9-10.1.2-2.3-.4-9-.9-11.8-.7-3.1.2-7.3.8-10.3.5-2.6-.2-5.2-.5-7.6-1.5-2-.9-4.1-2-4.6-4.1-.6-4.4 1.3-6.4 3.4-7.6 2.2-1.3 5.1-1.1 8.3-1.4 2.9-.2 5-.2 7.6-.4 1.7-.1 4.9-.4 6.6-.9 1.9-.6 3.9-3.1 4.7-3.2h14.1c1.4.1 1.8 4.5 2 5.5.1.7.2 1.5.4 2.3-.1.4.1.9.2 1.4z" class="j"/><path d="M330.8 402.9c-.4-3.2-.9-10.1 4.9-14.1h.7s-3.4-1.3-8.1 0-6.8 5-5.6 9.1c0 0 1.1 3.8 8.1 5zm17.1-15.1c-1.9 1.7-2.6 5.5-2.6 5.5-.2 1.4-2.8 1.6-2.6.3 0 0 .6-3.1 2.2-5.3.1 0 1.4-.8 3-.5zm-5.3.7s-2 1.7-2.7 5.2c-.3 1.4-2.4 1.4-2.3 0 0 0 .3-3.4 2.3-5 .7-.5 2.1-.6 2.7-.2z" class="c"/><path d="M376.3 355.6c-.2 2.3-.5 4.3.4 6.8 1.3 3.6 4.1 5.2 5.8 6.6 1.6 1.4 3.2 3.6 4.8 5.5s2 3.1 4.5 5.3c2.1 1.9 5.9 2.3 8.6 1.2 2.1-.9 2.8-1.6 2.7-4.8-.1-3.1-10.4-4.3-10.4-4.3l-16.4-16.3z" class="e"/><path d="M401.6 366.5c.9.3 1.1 1.9 1.2 5 .1 2.4 1.2 5.9-2.3 7.4-2.8 1.2-7.2.4-9.1-1.8-2.3-2.8-3.9-5.3-7.3-8.7-2.9-3-5.9-4-7.2-9.9-.8-3.8-.2-5.4 2.5-6.5 3.7-1.5 9.5 3.4 12.4 4.2 2.6.7 9 10 9.8 10.3z" class="j"/><path d="M391.9 356.2c-.2 0-.3-.1-.5-.2-5.4.4-7.5 3.9-8 5-.5 1 1 1.8 1.9 1 2.1-3.9 6.3-4.8 8-5-.5-.3-1-.7-1.4-.8zm2.4 1.8c-4.9.6-6.9 3.9-7.5 5-.5 1 1 1.8 1.9 1 1.6-3.1 4.7-4.3 6.7-4.8-.3-.4-.7-.8-1.1-1.2zm-15.6 4.9s.3-7.1 10.3-8l.6.3s-1.6-2.8-4.9-3.6c-3.3-.9-6 0-7.7 2.1-1.8 2.1-.1 7.9 1.7 9.2z" class="c"/><use xlink:href="#P" class="a"/><use xlink:href="#P" opacity=".4"/><path d="M398 250.6s-2.1 7.7-14.9 12.8l-3.4 27.3-.7-21.1 1.2-8.8c0 0 12-2.6 17.8-10.2z" opacity=".25"/><use xlink:href="#Q" class="a"/><use xlink:href="#Q" opacity=".6" class="d"/><path d="M371.1 152.2l2.1 17.8 16.5-3.7-2.1-23.8z" class="k"/><path d="M358.7 130.4s-4.4 6.7-3.9 7.4 3.8 1.3 3.8 1.3l.1-8.7z" fill="#9a4a4d"/><path d="M360.7 134.4a4.95 4.95 0 1 1 0-10 4.95 4.95 0 0 1 5 5c0 2.7-2.3 5-5 5zm0-8.9c-2.1 0-3.9 1.7-3.9 3.9 0 2.1 1.7 3.9 3.9 3.9 2.1 0 3.9-1.7 3.9-3.9-.1-2.2-1.8-3.9-3.9-3.9z" class="e"/><path d="M371 112.8c-8.5 1.8-11.5 5.2-12.3 18.7-.8 14.1 1.2 18.9 3 20.8 1.3 1.3 8.2 1.5 11.7.5 4.4-1.2 14.3-4.7 19-11.8 5.5-8.4 6.9-19.7 1-24.3-8.3-6.6-19-4.7-22.4-3.9z" class="k"/><path d="M371.3 153.2l-.4-2.6s-4.1 2.4-8.7 2c1.6.8 5.8 1 9.1.6z" fill="#9a4a4d"/><g class="e"><path d="M356.5 128.4l15.1 2-.6 1.1-14.5-1.9z"/><path d="M357.8 118.2c.6.1 1.3.1 1.9-.1-.6 1.2 0 2.7 1 3.5 1.1.8 2.5.9 3.8.5-.5.8-.6 1.7-.4 2.6.4 1.8 2.5 3.5 4.4 3.2.1 2 .1 3.9 2.2 4.8 0 0 1.3-5.2 5.7-4.6 4.4.7 5 6.3 2.2 9.7s-5.3 2.1-5.4 2.1c.1.9.4 1.9.7 2.5.8 1.7 2.2 3.1 3.7 4.1 2.5 1.6 6.4 2.9 10.6 2.9 1.4-4 3.6-7 6-10.5 1.9-2.7 4.3-5.9 5.2-9 1.1-3.8 1.1-7.5.1-10.6-1-3.2-2.3-5.6-5.7-6.4-.8-4.2-5-6.5-8.8-8.4s-8.6-2-12.4-.1c-1.4-1.5-2.5-3.3-4.5-4.2-1.6-.7-3.7-.5-4.8.9-.9 1.1-.8 2.6-.8 4-1.6-.2-3.3-.2-4.8.4s-2.8 1.9-3.1 3.5.6 3.5 2.2 3.9c-1.1.7-1.5 2.2-1.1 3.4s1.2 1.8 2.1 1.9z"/><path d="M370.6 135.7l.2-5.9c-1.6 0-3 1.2-3 2.9-.1 1.6 1.2 3 2.8 3z"/></g><use xlink:href="#R" class="a"/><use xlink:href="#R" class="d g"/><path d="M298.9 141.5c-.9-2.1.1-5.6.5-7.1.7-2.6.3-6.1.4-7.1.4-2.6-1.4-3.2-2.7-1.4-1.2 1.6-1.2 5.1-2.1 5.3s-3.4-6.6-4.8-10.5c-1.3-4-1.7-6.5-3.9-6-1.6.4-1.5 2.4-.7 5.7l1 4.3c0 .5-.8.6-1.2.7-.7.2-1.9.6-2.2 1.3-.2.4-.3.8-.5 1.1-.6.7-1.8.7-2.4 1.4-.5.5-.5 1.3-.9 1.8-.2.4-.6.6-.8 1-.5.7-.3 1.7-.1 2.5.9 2.9 2.4 4.8 4.2 7l4.7 6.3c2.9 4.5 13.4 21.6 18.6 28.3 1.1 1.4 2.1 2.7 4.5 3.4 6 1.6 42.6 4.8 42.6 4.8 10.6.2 14.3-19.1 5.3-20.1l-16.1-.3-25.1-.5s-17.6-20.2-18.3-21.9z" class="k"/><use xlink:href="#S" class="a"/><use xlink:href="#S" opacity=".6" class="d"/><defs ><path id="B" d="M66.6 400.7c2.5-13.7 3.6-29-1-50.3-3.9-18-13.6-33.5-24.9-35.5-4.6-.8-9.2 1.8-10.4 4.6-3.2 7.6 2.7 14.6 5.4 18.1 2 2.6 20.9 21.1 22.4 49.2l.9 16.8c.1.9.9 1.3 1.5.9l6.1-3.8z"/><path id="C" d="M468.3 265.8h0c0-5.7-3.7-11.3-11.2-15.6-14.9-8.6-39.2-8.6-54.1 0-7.5 4.3-11.2 10-11.2 15.6h0v3h0c.1 5.6 3.8 11.1 11.2 15.4 14.9 8.6 39.2 8.6 54.1 0 7.4-4.3 11.1-9.8 11.2-15.4h0v-3z"/><path id="D" d="M403 250.2c-14.9 8.6-14.9 22.6 0 31.2s39.2 8.6 54.1 0 14.9-22.6 0-31.2c-15-8.6-39.2-8.6-54.1 0z"/><path id="E" d="M184.6 31.8L62.4 102.3c-3.7 2.1-5.9 5.9-6.1 10.2v284.1c0 4.2 2.6 9.1 5.8 10.9s8.7 1.6 12.3-.5l121.8-70.3c3.6-2.1 6.6-7.2 6.6-11.3V42.2c0-4.2-2.6-9.1-5.8-10.9-3.3-1.8-8.8-1.6-12.4.5z"/><path id="F" d="M72.7 407.8c-3.5 1.4-8 1.3-10.7-.3-3.2-1.8-5.8-6.7-5.8-10.9V112.5c0-1.6.4-3.4 1.7-5.6l10.6 6c-2 2.5-3 5-3 7.6v281.4c-.1 5.1 3.1 7.5 7.2 5.9z"/><path id="G" d="M71.2 110.5c-3.2 1.8-5.8 6.3-5.8 10v281.4c0 5.6 4 8 8.9 5.1l121.8-70.3c3.6-2.1 6.6-7.2 6.6-11.3V42.2c0-4.2-2.9-5.9-6.6-3.8L71.2 110.5z"/><path id="H" d="M355.9 190.3c0-1.4-1-3-2.2-3.7l-1.8-1c-1.2-.7-3.1-.7-4.3 0l-26.9 15.5c-1.2.7-2.2 2.4-2.2 3.7v29.6c0 1.4 1 3 2.2 3.7l1.8 1c1.2.7 3.1.7 4.3 0l26.9-15.5c1.2-.7 2.2-2.4 2.2-3.7v-29.6z"/><path id="I" d="M318.7 234.3c0 1.4 1 3 2.2 3.7l1.8 1c1.1.6 2.7.7 3.9.2-1 .4-1.8-.2-1.8-1.4v-29.6c0-.7.2-1.4.6-2.1l-6.1-3.5c-.4.7-.6 1.4-.6 2.1v29.6z"/><path id="J" d="M159.7 252.1c6.3.8 10 2.8 13.7 7.2s18 28.3 18 28.3-4.9 10.5-18 16.1L157 282.2l2.7-30.1z"/><path id="K" d="M143.3 269.1c-2.6-1.6-8.4-8.1-11.2-5.1-2.9 3-4.4 3.9-6.3 3.3s-6.1-4.7-8.8-7.7-3.6-7.3-3.6-7.3 2.6-3.2 3.8-5.3c1.3-2.3 1-3 2.7-3.1l.1 4.3s1.1 2.4 5.7 5.6c4.7 3.2 14.2 7.9 17.6 15.3z"/><path id="L" d="M143.3 269.1c1.6-1.4 4.1-8 4.8-7.8 1 .3 2.8 4.8 3.6 3.8 1.4-1.7 1-9.4-1.3-12.2-2.2-2.7-5.3-5.8-7-6.1l.1 4.1s1.7 3.3 1.7 6.6c-.1 2.4-1.6 9.4-1.9 11.6z"/><path id="M" d="M166.5 232.4c-1.7-.8-2.5.2-3.7 3.1-1.2 2.8-.4 3.6 1.1 4.2 1.4.6 2.5-.4 3.4-2.7 1-2.8 1-3.8-.8-4.6z"/><path id="N" d="M125.8 220.5c-1.5-5.2-6.5-8.6-11.1-7.6-.7.2-1.4.4-2 .7-.5.3-2.1 1.4-2.4 1.6-2.9 1.9-4.3 6-3.1 10.1 1.5 5.2 6.5 8.6 11.1 7.6.9-.2 1.7-.5 2.4-1 .4-.2 1.8-1.2 2.2-1.5 2.8-1.9 4.1-5.9 2.9-9.9z"/><path id="O" d="M123.9 221.7c-1.5-5.2-6.5-8.6-11.1-7.6s-7.1 6-5.6 11.2 6.5 8.6 11.1 7.6 7.1-6 5.6-11.2z"/><path id="P" d="M405.1 316.6c-1-11-1.1-18.3-1.1-18.3l.4-31.1.2-20.7c.2-9.7-.9-17.7-1.7-22 0 0-51.5-10.2-52.1 8.6-.8 22.6-.7 61.3-1.5 76.1-.5 8.3.3 15.2.9 31.3.4 13.4.3 46.3.3 46.3 5.7 7.8 19 1.8 19 1.8l4.7-55.7c.7-10.3-.4-15.5-.4-15.5l5.3-47.8.9 23.6c.5 8.3 1.1 14.7 3.1 30.2l5.3 45.4c6.9 4.1 14.8.8 14.8.8s2.9-41.3 1.9-53z"/><path id="Q" d="M397.1 156.8c5.1 0 9.8 1.5 13.9 14.3s7.6 29.5 8 33.6c.4 5.4.2 7.7-4 11.6-4.1 3.9-15 13.1-15 13.1l-3.6-15.3 8.3-9.4-7.6-47.9z"/><path id="R" d="M405.4 164.9c-1.8-4.6-5.7-8.5-11.9-8.7h-4.6c-.7 2.9-11.8 3.8-17 2l-15.3 4.1c-5.5 1.8-5.5 8.8-5.5 24.9 0 15.1 0 32.9-.8 51.8 9.6 5.1 23.5 6.4 34.1 5.3 16.6-1.7 20.6-6.6 20.6-6.6-.7-9.8-.9-16.4-.6-26.1.2-7.2 1.7-16.1 2.3-23.9.4-7.8.3-18.5-1.3-22.8z"/><path id="S" d="M359 162.4c-5.4-.2-41.2.1-41.2.1l-14.9-15.9s-2.5 6.7-10.8 8.3c0 0 6.5 11.8 10.2 17.2 3.4 5 4.2 7.6 9.5 8.6s38.9 4.9 41.8 4.8 7.7-.6 10.7-9.1c2.6-7.4.2-13.7-5.3-14z"/></defs></svg>