<svg xmlns="http://www.w3.org/2000/svg" width="800" height="800" viewBox="0 -0.5 48 48" xmlns:v="https://vecta.io/nano"><path d="M23.999 0C10.746 0 0 10.787 0 24.097c0 10.644 6.876 19.675 16.414 22.862 1.2.221 1.638-.523 1.638-1.161l-.033-4.098c-6.677 1.456-8.085-3.23-8.085-3.23-1.09-2.783-2.664-3.524-2.664-3.524-2.179-1.495.165-1.465.165-1.465 2.407.17 3.675 2.483 3.675 2.483 2.142 3.682 5.617 2.619 6.986 2.001.217-1.557.838-2.619 1.524-3.221-5.33-.608-10.932-2.675-10.932-11.908 0-2.631.934-4.781 2.471-6.467-.248-.61-1.071-3.059.234-6.376 0 0 2.016-.648 6.6 2.47 1.916-.535 3.968-.801 6.009-.812 2.038.011 4.092.277 6.009.812 4.581-3.117 6.592-2.47 6.592-2.47 1.31 3.318.486 5.766.239 6.376 1.539 1.685 2.467 3.836 2.467 6.467 0 9.256-5.611 11.293-10.957 11.889.861.744 1.629 2.214 1.629 4.462l-.03 6.61c0 .645.432 1.395 1.65 1.158C41.13 43.763 48 34.738 48 24.097 48 10.787 37.254 0 23.999 0" fill="#3e75c3" fill-rule="evenodd"/></svg>