<svg xmlns="http://www.w3.org/2000/svg" xmlns:xlink="http://www.w3.org/1999/xlink" viewBox="0 0 500 500" xmlns:v="https://vecta.io/nano"><style><![CDATA[.h{fill:#27debf}.i{fill:#fff}.j{opacity:.6}.k{opacity:.8}.l{fill:#37474f}.m{fill:#455a64}.n{fill:#263238}.o{fill:#e6e6e6}.p{opacity:.5}.q{fill:#ffa8a7}.r{opacity:.15}.s{fill:#f5f5f5}.t{fill:#f0f0f0}]]></style><ellipse cx="249.9" cy="362.4" rx="224.2" ry="124.2" class="s"/><g class="o"><path d="M451.7 343.1l-125 72.2c-.9.5-2.4.5-3.4 0l-180.2-104c-.9-.5-.9-1.4 0-1.9l125-72.2c.9-.5 2.4-.5 3.4 0l180.2 104.1c.9.4.9 1.3 0 1.8z"/><ellipse cx="161.2" cy="412.4" rx="75.1" ry="43.3"/><ellipse cx="252.7" cy="362.1" rx="59.1" ry="34.1"/><ellipse cx="384.1" cy="407.9" rx="37.1" ry="21.4"/></g><path d="M329.4 286.4v110.9c0 .7-.5 1.6-1.1 1.9l-2.4 1.4c-.6.4-1.6.4-2.2 0l-2.4-1.4c-.6-.4-1.1-1.2-1.1-1.9V286.4c0-.7.5-1 1.1-.6l2.4 1.4c.6.4 1.6.4 2.2 0l2.4-1.4c.6-.4 1.1-.1 1.1.6z" class="l"/><path d="M323.7 400.6l-2.4-1.4c-.6-.4-1.1-1.2-1.1-1.9V286.4c0-.7.5-1 1.1-.6l2.4 1.4c.6.4 1.1 1.2 1.1 1.9V400c0 .7-.5 1-1.1.6z" class="m"/><path d="M430.9 227.7v110.9c0 .7-.5 1.6-1.1 1.9l-2.4 1.4c-.6.4-1.6.4-2.2 0l-2.4-1.4c-.6-.4-1.1-1.2-1.1-1.9V227.7c0-.7.5-1 1.1-.6l2.4 1.4c.6.4 1.6.4 2.2 0l2.4-1.4c.6-.4 1.1-.1 1.1.6z" class="l"/><path d="M425.2 342l-2.4-1.4c-.6-.4-1.1-1.2-1.1-1.9v-111c0-.7.5-1 1.1-.6l2.4 1.4c.6.4 1.1 1.2 1.1 1.9v110.9c0 .7-.5 1-1.1.7z" class="m"/><path d="M192.7 207.5v110.9c0 .7-.5 1.6-1.1 1.9l-2.4 1.4c-.6.4-1.6.4-2.2 0l-2.4-1.4c-.6-.4-1.1-1.2-1.1-1.9V207.5c0-.7.5-1 1.1-.6l2.4 1.4c.6.4 1.6.4 2.2 0l2.4-1.4c.6-.4 1.1-.1 1.1.6z" class="l"/><path d="M187 321.7l-2.4-1.4c-.6-.4-1.1-1.2-1.1-1.9V207.5c0-.7.5-1 1.1-.6l2.4 1.4c.6.4 1.1 1.2 1.1 1.9v110.9c0 .7-.5 1-1.1.6z" class="m"/><use xlink:href="#B" class="h"/><use xlink:href="#B" class="j"/><use xlink:href="#C" class="h"/><use xlink:href="#C" class="p"/><use xlink:href="#D" class="h"/><use xlink:href="#D" opacity=".4"/><path d="M325.3 232.2l-26.1 15.1c-.8.5-2.1.5-2.9 0l-77.1-44.4c-.8-.5-.8-1.2 0-1.7l26.1-15.1c.8-.5 2.1-.5 2.9 0l77.1 44.4c.8.5.8 1.3 0 1.7z" class="r"/><path d="M220.8 198.5c0-.3.2-.6.6-.8l24.5-14.1c.8-.5 2.1-.5 2.9 0l74.8 43.3c.4.2.6.5.6.8v2.6c0 .3-.2.6-.6.8l-24.5 14.1c-.8.5-2.1.5-2.9 0L221.4 202c-.4-.2-.6-.5-.6-.8v-2.7z" class="n"/><path d="M299.1 242.6l24.5-14.1c.8-.5.8-1.2 0-1.7l-74.8-43.3c-.8-.5-2.1-.5-2.9 0l-24.5 14.1c-.8.5-.8 1.2 0 1.7l74.8 43.2c.8.5 2.1.5 2.9.1z" class="l"/><path d="M297.7 242.9v2.6c.5 0 1-.1 1.4-.3l24.5-14.1c.4-.2.6-.5.6-.8v-2.6c0 .3-.2.6-.6.8l-24.5 14.1c-.4.2-.9.3-1.4.3z" class="n"/><path d="M225.3 198.7l2.4-1.4 3.3 1.9-2.4 1.4-3.3-1.9h0zm3.8-2.2l2.4-1.4 2.6 1.5-2.4 1.4-2.6-1.5h0zm.8 4.9s0-.1 0 0l2.4-1.4 2.6 1.5-2.4 1.4-2.6-1.5h0zm3-7.1l2.4-1.4 4.2 2.4-2.4 1.4-4.2-2.4h0zm.1 4.5s0-.1 0 0l2.4-1.4 2.1 1.2-2.4 1.4-2.1-1.2h0zm.8 4.8l2.4-1.4 2.6 1.5-2.4 1.4-2.6-1.5h0zm2.6-2.9l2.4-1.4 2.1 1.2-2.4 1.4-2.1-1.2h0zm.3-8.6l2.4-1.4 3.3 1.9-2.4 1.4-3.3-1.9h0zm1 13.8s0-.1 0 0l2.4-1.4 18.7 10.8-2.4 1.4-18.7-10.8h0zm.7-8.4l2.4-1.4 2.1 1.2-2.4 1.4-2.1-1.2h0zm1.3 5.2c0-.1 0-.1 0 0l2.4-1.4 2.1 1.2-2.4 1.4-2.1-1.2h0zm.8-12.7c0-.1 0-.1 0 0l2.4-1.4 2.1 1.2-2.4 1.4-2.1-1.2h0zm.8 4.8l2.4-1.4 2.1 1.2-2.4 1.4-2.1-1.2h0zm.4 4.6h0l2.4-1.4 2.1 1.2-2.4 1.4-2.1-1.2h0zm1.4 5.2l2.4-1.4 2.1 1.2-2.4 1.4-2.1-1.2h0zm.8-12.7l2.4-1.4 2.1 1.2-2.4 1.4-2.1-1.2h0zm.8 4.8l2.4-1.4 2.1 1.2-2.4 1.4-2.1-1.2h0zm.4 4.7l2.4-1.4 2.1 1.2-2.4 1.4-2.1-1.2h0zm0-14.1l2.4-1.4 2.6 1.5-2.4 1.4-2.6-1.5h0zm1.3 19.2h0l2.4-1.4 2.1 1.2-2.4 1.4-2.1-1.2h0zm.8-12.7l2.4-1.4 2.1 1.2-2.4 1.4-2.1-1.2h0zm.8 4.9l2.4-1.4 2.1 1.2-2.4 1.4-2.1-1.2h0zm.5 4.6l2.4-1.4 2.1 1.2-2.4 1.4-2.1-1.2h0zm1.3 5.2s0-.1 0 0l2.4-1.4 2.1 1.2-2.4 1.4-2.1-1.2h0zm.7-18.1l2.4-1.4 2.1 1.2-2.4 1.4-2.1-1.2h0zm.1 5.4s0-.1 0 0l2.4-1.4 2.1 1.2-2.4 1.4-2.1-1.2h0zm.8 4.8l2.4-1.4 2.1 1.2-2.4 1.4-2.1-1.2h0zm.4 4.7c0-.1 0-.1 0 0l2.4-1.4 2.1 1.2-2.4 1.4-2.1-1.2h0zm1.4 5.1l2.4-1.4 2.1 1.2-2.4 1.4-2.1-1.2h0zm.6-18.1l2.4-1.4 2.1 1.2-2.4 1.4-2.1-1.2h0zm.1 5.4h0l2.4-1.4 2.1 1.2-2.4 1.4-2.1-1.2h0zm.8 4.9c0-.1.1-.1 0 0l2.4-1.4 2.1 1.2-2.4 1.4-2.1-1.2h0zm.5 4.6l2.4-1.4 2.1 1.2-2.4 1.4-2.1-1.2h0zm1.3 5.2c0-.1 0-.1 0 0l2.4-1.4 2.1 1.2-2.4 1.4-2.1-1.2h0zm.7-18.1c0-.1 0-.1 0 0l2.4-1.4 2.1 1.2-2.4 1.4-2.1-1.2h0zm.1 5.4c0-.1 0-.1 0 0l2.4-1.4 2.1 1.2-2.4 1.4-2.1-1.2h0zm.4 17.7l2.4-1.4 2.6 1.5-2.4 1.4-2.6-1.5h0zm.4-12.9l2.4-1.4 2.1 1.2-2.4 1.4-2.1-1.2h0zm.4 4.6h0l2.4-1.4 2.1 1.2-2.4 1.4-2.1-1.2h0zm1.4 5.2l2.4-1.4 2.1 1.2-2.4 1.4-2.1-1.2h0zm.6-18.1h0l2.4-1.4 2.1 1.2-2.4 1.4-2.1-1.2h0zm.2 5.4l2.4-1.4 2.1 1.2-2.4 1.4-2.1-1.2h0zm.8 4.8l2.4-1.4 2.1 1.2-2.4 1.4-2.1-1.2h0zm.1 13.3c0-.1 0-.1 0 0l2.4-1.4 2.6 1.5-2.4 1.4-2.6-1.5h0zm.3-8.6l2.4-1.4 2.1 1.2-2.4 1.4-2.1-1.2h0zm1.3 5.1h0l2.4-1.4 2.1 1.2-2.4 1.4-2.1-1.2h0zm.8-12.7l2.4-1.4 2.1 1.2-2.4 1.4-2.1-1.2h0zm.8 4.9l2.4-1.4 2.1 1.2-2.4 1.4-2.1-1.2h0zm.5 4.6l2.4-1.4 2.1 1.2-2.4 1.4-2.1-1.2h0zm.1-14l2.4-1.4 2.1 1.2-2.4 1.4-2.1-1.2h0zm.1 22.9l2.4-1.4 2.6 1.5-2.4 1.4-2.6-1.5h0zm1.1-3.7s0-.1 0 0l2.4-1.4 2.1 1.2-2.4 1.4-2.1-1.2h0zm.8-12.7s0-.1 0 0l2.4-1.4 2.1 1.2-2.4 1.4-2.1-1.2h0zm.8 4.8l2.4-1.4 2.1 1.2-2.4 1.4-2.1-1.2h0zm.4 4.7c0-.1 0-.1 0 0l2.4-1.4 2.1 1.2-2.4 1.4-2.1-1.2h0zm.1-14.1l2.4-1.4 2.1 1.2-2.4 1.4-2.1-1.2h0zm.6 23.2h0l2.4-1.4 3.3 1.9-2.4 1.4-3.3-1.9h0zm.7-4l2.4-1.4 6.5 3.7-2.4 1.4-6.5-3.7h0zm.7-12.7h0l2.4-1.4 2.1 1.2-2.4 1.4-2.1-1.2h0zm.8 4.9c0-.1.1-.1 0 0l2.4-1.4 2.1 1.2-2.4 1.4-2.1-1.2h0zm.5 4.6l2.4-1.4 2.1 1.2-2.4 1.4-2.1-1.2h0zm.1-14c0-.1 0-.1 0 0l2.4-1.4 2.1 1.2-2.4 1.4-2.1-1.2h0zm2 6.5c0-.1 0-.1 0 0l2.4-1.4 2.1 1.2-2.4 1.4-2.1-1.2h0zm.6 17.8l2.4-1.4 2.1 1.2-2.4 1.4-2.1-1.2h0zm.2-13l2.4-1.4 2.1 1.2-2.4 1.4-2.1-1.2h0zm.4 4.6h0l2.4-1.4 1.9 1.1c.1.1.4.1.6.1.3 0 .5 0 .6-.1l3.2-1.8 2.4 1.4-6.2 3.6-4.9-2.9h0zm.1-14h0l2.4-1.4 2.1 1.2-2.4 1.4-2.1-1.2h0zm2.1 6.5l2.4-1.4 2.1 1.2-2.4 1.4-2.1-1.2h0zm.5 17.9c0-.1 0-.1 0 0l2.4-1.4 2.1 1.2-2.4 1.4-2.1-1.2h0zm.3-13.1l2.4-1.4 2.1 1.2-2.4 1.4-2.1-1.2h0zm2-8.5l2.4-1.4 2.1 1.2-2.4 1.4-2.1-1.2h0zm.5 5.6l2.4-1.4 2.1 1.2-2.4 1.4-2.1-1.2h0zm.6 17.9l2.4-1.4 2.1 1.2-2.4 1.4-2.1-1.2h0zm.4-4.1c0-.1 0-.1 0 0l2.4-1.4 2.1 1.2-2.4 1.4-2.1-1.2h0zm1.8-17.5l2.4-1.4 2.1 1.2-2.4 1.4-2.1-1.2h0zm.6 5.7s0-.1 0 0l2.4-1.4 3.6 2.1-2.4 1.4-3.6-2.1h0zm1.2 18.2h0l2.4-1.4 5.4 3.1-2.4 1.4-5.4-3.1h0zm.6-12.8h0l2.4-1.4 2.1 1.2-2.4 1.4-2.1-1.2h0zm1-9.1s0-.1 0 0l2.4-1.4 2.1 1.2-2.4 1.4-2.1-1.2h0zm2.2 19.7l2.4-1.4 2.1 1.2-2.4 1.4-2.1-1.2h0zm.2-8.6s0-.1 0 0l2.4-1.4 2.1 1.2-2.4 1.4-2.1-1.2h0zm.4-4.2h0l2.4-1.4 2.1 1.2-2.4 1.4-2.1-1.2h0zm.5-5h0l2.4-1.4 2.1 1.2-2.4 1.4-2.1-1.2h0zm1.9 23.9l2.4-1.4 2.1 1.2-2.4 1.4-2.1-1.2h0zm.4-4.1l2.4-1.4 2.1 1.2-2.4 1.4-2.1-1.2h0zm.2-8.7l2.4-1.4 2.1 1.2-2.4 1.4-2.1-1.2h0zm.2 4.6c0-.1 0-.1 0 0l2.4-1.4 2.1 1.2-2.4 1.4-2.1-1.2h0zm.2-8.7l2.4-1.4 2.1 1.2-2.4 1.4-2.1-1.2h0zm1.3-4.6l2.4-1.4 2.1 1.2-2.4 1.4-2.1-1.2h0zm1 23.5c0-.1 0-.1 0 0l6.2-3.6 2.1 1.2-6.2 3.6-2.1-1.2h0zm.5-4.2l2.4-1.4 2.1 1.2-2.4 1.4-2.1-1.2h0zm.4-4.1l2.4-1.4 2.1 1.2-2.4 1.4-2.1-1.2h0zm.2-8.7l2.4-1.4 2.1 1.2-2.4 1.4-2.1-1.2h0zm.2 4.6c0-.1 0-.1 0 0l2.4-1.4 2.1 1.2-2.4 1.4-2.1-1.2h0zm1-9.2l2.4-1.4 2.1 1.2-2.4 1.4-2.1-1.2h0zm2 15.2l2.4-1.4 2.1 1.2-2.4 1.4-2.1-1.2h0zm.4-4.1l2.4-1.4 2.1 1.2-2.4 1.4-2.1-1.2h0zm.4-4.1s0-.1 0 0l2.4-1.4 2.1 1.2-2.4 1.4-2.1-1.2h0zm.6-5c0-.1 0-.1 0 0l2.4-1.4 2.1 1.2-2.4 1.4-2.1-1.2h0zm1.9 15.2s0-.1 0 0l6.2-3.6 2.1 1.2-6.2 3.6-2.1-1.2h0zm.5-4.2l2.4-1.4 2.1 1.2-2.4 1.4-2.1-1.2h0zm.4-4.1l2.4-1.4 2.1 1.2-2.4 1.4-2.1-1.2h0zm2.2-5.2l1-.6 2.1 1.2-1.1.7-2-1.3h0zm1.2 7.1l2.4-1.4 2.1 1.2-2.4 1.4-2.1-1.2h0zm2.2-5.1l1-.6 2.1 1.2-1.1.7-2-1.3h0zm1.1 7.1l2.4-1.4 2.1 1.2-2.4 1.4-2.1-1.2h0zm2.2-5.2l1-.6 2.1 1.2-1.1.7-2-1.3h0zm3.4 2c0-.1 0-.1 0 0l1-.6 2.1 1.2-1.1.7-2-1.3h0z" class="h"/><path d="M385.6 235.2l22.9-13.3-114.7-66.2-23 13.2z" class="r"/><path d="M320.6 213.6l-16.4-9.5c-1.7-1-2.5-2.3-2.5-3.5v-2.3l15.4-8.8c.9-.5 1.6-1.8 1.6-2.8v-20.2l28.6 16.5v20.2c0 1-.7 2.3-1.6 2.8l-12.9 7.5c-3.4 2-8.8 2-12.2.1z" class="o"/><path d="M340.5 206.8v2.3l5.2-3c.9-.5 1.6-1.8 1.6-2.8v-20.2l-5.5-3.1-.3 4.2 3.8 2.2v15.8c0 1-.7 2.3-1.6 2.8l-3.2 1.8z" fill="#e0e0e0"/><path d="M345.4 202.1c0 1-.7 2.3-1.6 2.8l-10.9 6.4c-3.4 2-8.9 2-12.2 0l-16.4-9.5c-3.4-1.9-3.4-5.1 0-7.1l10.9-6.4c.9-.5 1.6-1.8 1.6-2.8v-15.8l28.6 16.5v15.9z" class="s"/><path d="M311.8 190.3h0l3.3-1.9c.9-.5 1.6-1.8 1.6-2.8v-15.8l28.6 16.5v15.8c0 1-.7 2.3-1.6 2.8l-3.3 1.9-28.6-16.5zm-10.1 8v2.3c0 1.3.8 2.6 2.5 3.5l16.4 9.5c1.6.9 3.7 1.4 5.8 1.5v-2.3c-2.1 0-4.2-.5-5.8-1.5l-16.4-9.5c-1.7-.9-2.5-2.2-2.5-3.5z" fill="#ebebeb"/><path d="M391.3 223.9c-1.1.6-2.8.6-4-.1l-110.7-63.9c-1.1-.7-2-2.2-2-3.5V59.5c0-1.3.9-2.8 1.9-3.5 1.1-.6 2.8-.6 4 .1L391.2 120c1.1.7 2 2.2 2 3.5v96.9c0 1.4-.8 2.9-1.9 3.5z" class="m"/><path d="M387.4 223.9L276.7 160c-1.1-.7-2-2.2-2-3.5v-97c0-1.3.9-1.8 2-1.2l110.7 63.9c1.1.7 2 2.2 2 3.5v96.9c0 1.4-.9 1.9-2 1.3z" class="l"/><path d="M387.7 224.3c1.1.5 2.7.5 3.7-.1 1.1-.6 1.9-2.2 1.9-3.5v-10.9l-3.8 2.2v10.9c-.1 1.2-.8 1.8-1.8 1.4z" fill="#e0e0e0"/><path d="M389.4 212v10.9c0 1.3-.9 1.8-2 1.2l-110.7-63.9c-1.1-.7-2-2.2-2-3.5v-10.9L389.4 212z" class="i"/><use xlink:href="#E" class="h"/><use xlink:href="#E" class="i p"/><path d="M332 183.1c1.1.6 1.9 2.1 1.9 3.3s-.9 1.7-1.9 1.1c-1.1-.6-1.9-2.1-1.9-3.3s.9-1.7 1.9-1.1z" class="m"/><path d="M388.8 123.8a3.86 3.86 0 0 1 .6 2V212l3.8-2.2v-86.2a3.86 3.86 0 0 0-.6-2l-3.8 2.2z" class="n"/><path d="M292.8 39.5v-.2-.2c0-.1.1-.2.1-.2s0-.1.1-.1c0 0 0-.1.1-.1 0-.1.1-.1.1-.1.1 0 .1-.1.2-.1.4-.2.8-.1 1.3.2l129.2 74.5c1.1.6 2 2.1 2 3.4v93.5.4c0 .5-.3 1-.7 1.2 0 0-.1 0-.1.1 0 0-.1 0-.1.1-.1 0-.1 0-.2.1h-.2c-.2 0-.4-.1-.6-.2h-.1l-1.9-1.1-127.3-73.5c-1.1-.6-2-2.1-2-3.4v-94c0-.1 0-.2.1-.3z" class="m"/><g class="h"><path d="M293.4 38.5c.4-.2.8-.1 1.3.2l129.2 74.5c1.1.6 2 2.1 2 3.4v6.4l2.5-1.5v-6.3c0-1.2-.9-2.8-1.9-3.4L297.2 37.2c-.6-.3-1.1-.3-1.4-.1-.4.2-2 1.2-2.4 1.4z"/><path d="M292.7 39.8c0-1.2.9-1.7 1.9-1.1l129.2 74.5c1.1.6 2 2.1 2 3.4v6.4L292.7 46.2v-6.4z"/></g><g class="p i"><path d="M294.7 38.6l129.2 74.5c.5.3 1 .8 1.4 1.4l2.5-1.4a3.16 3.16 0 0 0-1.4-1.4L297.2 37.2c-.6-.3-1.1-.3-1.4-.1s-2 1.1-2.4 1.4c.3-.2.8-.1 1.3.1z"/></g><path d="M428.3 121.5v-6.3c0-.6-.2-1.3-.6-2l-2.5 1.4c.4.6.6 1.3.6 1.9v6.4l2.5-1.4z" class="r"/><path d="M421.4 114.5c.6.4 1.1 1.4 1.1 2.3s-.5 1.4-1.1 1.1c-.6-.4-1.1-1.4-1.1-2.3s.5-1.4 1.1-1.1zm-4-2.3c.6.4 1.1 1.4 1.1 2.3s-.5 1.4-1.1 1.1c-.6-.4-1.1-1.4-1.1-2.3s.5-1.4 1.1-1.1zm-3.9-2.2c.6.4 1.1 1.4 1.1 2.3s-.5 1.4-1.1 1.1c-.6-.4-1.1-1.4-1.1-2.3s.5-1.5 1.1-1.1z" class="m"/><path d="M425.1 211.7l.1-.1 2.1-1.2c.6-.3.9-.9 1-1.5v-.3-87.2l-2.5 1.5v87.6c0 .5-.2.9-.7 1.2.1-.1.1-.1 0 0h0z" opacity=".9" class="n"/><path d="M332.3 79.4l27.2 15.7c.4.2.7.7.7 1.2 0 .4-.3.6-.7.4L332.3 81c-.4-.2-.7-.7-.7-1.2 0-.4.3-.6.7-.4z" class="h"/><g class="o"><use xlink:href="#F"/><use xlink:href="#F" y="6"/></g><g class="h"><path d="M362.2 96.7l54.5 31.4c.4.2.7.7.7 1.2 0 .4-.3.6-.7.4l-54.5-31.4c-.4-.2-.7-.7-.7-1.2s.3-.6.7-.4zm-19.3 54.9l16.6 9.6c.4.2.7.7.7 1.2 0 .4-.3.6-.7.4l-16.6-9.6c-.4-.2-.7-.7-.7-1.2s.4-.6.7-.4zm19.3 11.2l54.5 31.4c.4.2.7.7.7 1.2 0 .4-.3.6-.7.4l-54.5-31.4c-.4-.2-.7-.7-.7-1.2s.3-.7.7-.4z"/><use xlink:href="#G"/></g><use xlink:href="#G" class="i j"/><use xlink:href="#H" class="h"/><use xlink:href="#H" class="i j"/><use xlink:href="#I" class="h"/><use xlink:href="#I" class="i j"/><use xlink:href="#J" class="h"/><use xlink:href="#J" class="i j"/><use xlink:href="#K" class="h"/><g class="i"><use xlink:href="#K" class="j"/><path d="M361.4 138.3l55.3 31.8c.4.2.7.7.7 1.2 0 .4-.3.6-.7.4l-55.3-31.8c-.4-.2-.7-.7-.7-1.2 0-.4.4-.6.7-.4zm47.1 21.1l8.2 4.8c.4.2.7.7.7 1.2s-.3.6-.7.4l-8.2-4.8c-.4-.2-.7-.7-.7-1.2s.3-.6.7-.4zm-58-33.4l55.3 31.8c.4.2.7.7.7 1.2s-.3.6-.7.4l-55.3-31.8c-.4-.2-.7-.7-.7-1.2s.3-.6.7-.4z"/></g><use xlink:href="#G" x="10.4" y="12" class="h"/><use xlink:href="#G" x="10.4" y="12" class="i j"/><use xlink:href="#L" class="h"/><use xlink:href="#L" class="i j"/><use xlink:href="#M" class="o"/><use xlink:href="#N" class="h"/><use xlink:href="#N" class="i j"/><path d="M342.7 139.6l74 42.7c.4.2.7.7.7 1.2 0 .4-.3.6-.7.4l-74-42.7c-.4-.2-.7-.7-.7-1.2 0-.4.3-.6.7-.4z" class="o"/><use xlink:href="#N" y="6" class="h"/><use xlink:href="#N" y="6" class="i j"/><use xlink:href="#M" y="12" class="o"/><use xlink:href="#N" y="12" class="h"/><use xlink:href="#N" y="12" class="i j"/><g class="i j"><use xlink:href="#O"/><use xlink:href="#P"/><use xlink:href="#O" y="12.1"/><path d="M322.3 91.6l3.8 2.2c.4.2.7.7.7 1.2v1.4c0 .4-.3.6-.7.4l-3.8-2.2c-.4-.2-.7-.7-.7-1.2V92c0-.4.3-.6.7-.4z"/><use xlink:href="#P" y="18.2"/><use xlink:href="#O" y="30.3"/><path d="M322.3 109.8l3.8 2.2c.4.2.7.7.7 1.2v1.4c0 .4-.3.6-.7.4l-3.8-2.2c-.4-.2-.7-.8-.7-1.2v-1.4c0-.4.3-.6.7-.4z"/><use xlink:href="#Q"/><use xlink:href="#O" y="48.5"/><use xlink:href="#O" y="54.6"/><use xlink:href="#Q" y="18.2"/><use xlink:href="#O" y="66.7"/></g><path d="M297.3 53.7l20.4 11.8c.8.4 1.4 1.5 1.4 2.4v23.6c0 .9-.6 1.2-1.4.8l-20.4-11.8c-.8-.4-1.4-1.5-1.4-2.4V54.5c0-.9.6-1.2 1.4-.8z" class="l"/><use xlink:href="#R" class="h"/><use xlink:href="#R" class="i j"/><use xlink:href="#S" class="h"/><use xlink:href="#S" class="i j"/><use xlink:href="#T" class="h"/><use xlink:href="#T" class="i j"/><use xlink:href="#S" x="2.6" y="9.2" class="h"/><use xlink:href="#S" x="2.6" y="9.2" class="i j"/><use xlink:href="#T" x="-2.6" y="6.2" class="h"/><use xlink:href="#T" x="-2.6" y="6.2" class="i j"/><use xlink:href="#T" y="11.6" class="h"/><use xlink:href="#T" y="11.6" class="i j"/><use xlink:href="#U" class="h"/><use xlink:href="#U" class="i k"/><use xlink:href="#V" class="h"/><use xlink:href="#V" class="i k"/><use xlink:href="#W" class="h"/><use xlink:href="#W" class="i k"/><use xlink:href="#X" class="h"/><use xlink:href="#X" class="i k"/><use xlink:href="#U" y="11.6" class="h"/><use xlink:href="#U" y="11.6" class="i k"/><use xlink:href="#X" y="7.7" class="h"/><use xlink:href="#X" y="7.7" class="i k"/><path d="M297.3 84.9l20.4 11.8c.8.4 1.4 1.5 1.4 2.4v46.5c0 .9-.6 1.2-1.4.8l-20.4-11.8c-.8-.4-1.4-1.5-1.4-2.4V85.7c0-.9.6-1.3 1.4-.8z" class="l"/><use xlink:href="#T" x="-2.6" y="25.8" class="h"/><use xlink:href="#T" x="-2.6" y="25.8" class="i j"/><use xlink:href="#S" x="2.6" y="36.5" class="h"/><use xlink:href="#S" x="2.6" y="36.5" class="i j"/><use xlink:href="#T" y="35" class="h"/><use xlink:href="#T" y="35" class="i j"/><use xlink:href="#S" y="42.7" class="h"/><use xlink:href="#S" y="42.7" class="i j"/><use xlink:href="#Y" class="h"/><use xlink:href="#Y" class="i k"/><use xlink:href="#Z" class="h"/><use xlink:href="#Z" class="i k"/><use xlink:href="#W" y="35" class="h"/><use xlink:href="#W" y="35" class="i k"/><use xlink:href="#a" class="h"/><use xlink:href="#a" class="i k"/><use xlink:href="#S" x="2.6" y="48.1" class="h"/><use xlink:href="#S" x="2.6" y="48.1" class="i j"/><use xlink:href="#T" y="46.6" class="h"/><use xlink:href="#T" y="46.6" class="i j"/><use xlink:href="#Z" y="11.6" class="h"/><use xlink:href="#Z" y="11.6" class="i k"/><use xlink:href="#b" class="h"/><use xlink:href="#b" class="i k"/><use xlink:href="#c" class="h"/><use xlink:href="#c" class="i j"/><use xlink:href="#Y" y="30.9" class="h"/><use xlink:href="#Y" y="30.9" class="i k"/><use xlink:href="#T" y="62.1" class="h"/><use xlink:href="#T" y="62.1" class="i j"/><use xlink:href="#S" x="2.6" y="71.3" class="h"/><use xlink:href="#S" x="2.6" y="71.3" class="i j"/><use xlink:href="#X" y="58.2" class="h"/><use xlink:href="#X" y="58.2" class="i k"/><use xlink:href="#d" class="h"/><use xlink:href="#d" class="i k"/><use xlink:href="#R" x="2.6" y="36.5" class="h"/><use xlink:href="#R" x="2.6" y="36.5" class="i j"/><use xlink:href="#c" y="-3.9" class="h"/><use xlink:href="#c" y="-3.9" class="i j"/><use xlink:href="#Z" y="19.3" class="h"/><use xlink:href="#Z" y="19.3" class="i k"/><use xlink:href="#Y" y="27" class="h"/><use xlink:href="#Y" y="27" class="i k"/><use xlink:href="#S" y="73.7" class="h"/><use xlink:href="#S" y="73.7" class="i j"/><use xlink:href="#e" class="h"/><use xlink:href="#e" class="i k"/><g class="k m"><path d="M410.8 150.3v76.4c0 1 .7 2.2 1.6 2.7l43.9 25.3c.2.1.4.2.5.2h.2.1.1s.1 0 .1-.1c0 0 .1 0 .1-.1.1-.1.2-.3.3-.4.1-.2.2-.5.2-.8v-76c0-1-.7-2.2-1.6-2.7l-43.9-25.3c-.4-.2-.8-.3-1.1-.1 0 0-.1 0-.1.1l-.1.1v.1s0 .1-.1.1c0 .1-.1.1-.1.2v.1.1c-.1 0-.1 0-.1.1z"/></g><g class="h"><path d="M411.3 149.2c.3-.1.7-.1 1.1.1l43.9 25.3c.9.5 1.6 1.7 1.6 2.7v5.2l2.5-1.5v-5c0-1-.7-2.2-1.6-2.7L414.9 148c-.5-.3-.9-.3-1.2-.1l-2.4 1.3z"/><path d="M410.8 150.3c0-1 .7-1.4 1.6-.9l43.9 25.3c.9.5 1.6 1.7 1.6 2.7v5.2l-47-27.1v-5.2z"/></g><g class="p i"><path d="M412.4 149.4l43.9 25.3c.4.3.8.7 1.1 1.2l2.5-1.4c-.3-.5-.7-.9-1.1-1.2L414.9 148c-.5-.3-.9-.3-1.2-.1s-2.1 1.2-2.4 1.4c.3-.2.7-.2 1.1.1z"/></g><path d="M460.4 181.1v-5.2c0-.5-.2-1.1-.5-1.6l-2.5 1.4c.3.5.5 1.1.5 1.6v5.2l2.5-1.4z" class="r"/><path d="M455.5 176.8c.5.3.9 1.1.9 1.9s-.4 1.1-.9.9c-.5-.3-.9-1.1-.9-1.9s.4-1.2.9-.9zm-3.2-1.9c.5.3.9 1.1.9 1.9s-.4 1.1-.9.9c-.5-.3-.9-1.1-.9-1.9s.4-1.1.9-.9zm-3.2-1.8c.5.3.9 1.1.9 1.9s-.4 1.1-.9.9c-.5-.3-.9-1.1-.9-1.9s.4-1.2.9-.9z" class="m"/><g opacity=".9" class="l"><path d="M457.3 254.7c.1 0 .1-.1.2-.1.1-.1.3-.2.5-.3h0c.1-.1.2-.1.3-.2a.76.76 0 0 1 .4-.2c.1-.1.8-.4.9-.5s.2-.1.2-.1c.1-.1.2-.1.3-.2s.2-.2.2-.3c.1-.2.2-.5.2-.8v-70.8l-2.5 1.5v70.8c0 .3-.1.6-.2.8a1.38 1.38 0 0 1-.3.4h-.2z"/></g><g class="h"><path d="M414.4 164.3c0-.1 0-.2.1-.2l1.1-1h.1l.1.1v.2.8.2s0 .1-.1.1l-.6.6.6 1.2c0 .1.1.2.1.2v.2.8.1h-.1l-.1-.1-1.1-2.4c-.1-.1-.1-.2-.1-.3v-.5zm4.2-1.2c0-.1 0-.1.1-.1h.2l.4.2.1.1v.2.1l-2 6.1c0 .1 0 .1-.1.1h-.2l-.4-.2-.1-.1v-.2-.1l2-6.1zm3 5.9c0 .1 0 .2-.1.2l-1.1 1h-.1l-.1-.1v-.2-.8-.2s0-.1.1-.1l.6-.6-.6-1.2c0-.1-.1-.2-.1-.2v-.2-.8-.1h.1l.1.1 1.1 2.4c.1.1.1.2.1.3v.5zm3.2 3.1l.1.1v.2.9.1h-.1l-.5-.3-.1-.1v-.2-.9-.1h.1l.5.3zm1.8 1l.1.1v.2.9.1h-.1l-.5-.3-.1-.1v-.2-.8-.1h.1l.5.2zm1.8 1.1l.1.1v.2.9.1h-.1l-.5-.3-.1-.1v-.2-.9-.1h.1l.5.3z"/><use xlink:href="#f"/></g><path d="M423.4 190.7l26.4 15.2c.3.2.6.6.6.9s-.3.5-.6.3l-26.4-15.2c-.3-.2-.6-.6-.6-.9s.3-.5.6-.3zm0 9.8l12.6 7.3c.3.2.6.6.6.9s-.3.5-.6.3l-12.6-7.3c-.3-.2-.6-.6-.6-.9 0-.4.3-.5.6-.3z" class="o"/><g class="h"><path d="M443.5 187.7l10.5 6c.3.2.6.6.6.9s-.3.5-.6.3l-10.5-6c-.3-.2-.6-.6-.6-.9s.2-.5.6-.3z"/><use xlink:href="#f" y="53.7"/><path d="M443.5 241.4l10.5 6c.3.2.6.6.6.9s-.3.5-.6.3l-10.5-6c-.3-.2-.6-.6-.6-.9 0-.4.2-.5.6-.3zm0-14.7l10.5 6c.3.2.6.6.6.9s-.3.5-.6.3l-10.5-6c-.3-.2-.6-.6-.6-.9s.2-.4.6-.3zm0 4.9l10.5 6c.3.2.6.6.6.9s-.3.5-.6.3l-10.5-6c-.3-.2-.6-.6-.6-.9s.2-.5.6-.3zm-9-10l5.9 3.4c.3.2.6.6.6.9s-.3.5-.6.3l-5.9-3.4c-.3-.2-.6-.6-.6-.9 0-.4.3-.5.6-.3z"/><use xlink:href="#g"/></g><use xlink:href="#g" class="i j"/><path d="M414.9 180.9l5.2 3c.3.2.6.6.6.9s-.3.5-.6.3l-5.2-3c-.3-.2-.6-.6-.6-.9s.3-.4.6-.3z" class="h"/><path d="M414.9 180.9l5.2 3c.3.2.6.6.6.9s-.3.5-.6.3l-5.2-3c-.3-.2-.6-.6-.6-.9s.3-.4.6-.3z" class="i j"/><use xlink:href="#h" class="h"/><use xlink:href="#h" class="i j"/><use xlink:href="#h" y="4.9" class="h"/><use xlink:href="#h" y="4.9" class="i j"/><g class="h"><use xlink:href="#g" x="8.5" y="19.5" class="j"/><use xlink:href="#i" class="j"/></g><g class="i"><use xlink:href="#g" x="8.5" y="19.5" class="j"/><use xlink:href="#i" class="j"/></g><use xlink:href="#j" class="h"/><use xlink:href="#j" class="i j"/><use xlink:href="#k" class="h"/><g class="i"><use xlink:href="#k" class="j"/><path d="M429.7 209l15.4 8.9c.3.2.6.6.6.9s-.3.5-.6.3l-15.4-8.9c-.3-.2-.6-.6-.6-.9.1-.3.3-.5.6-.3zm8.9 10l15.4 8.9c.3.2.6.6.6.9s-.3.5-.6.3l-15.4-8.9c-.3-.2-.6-.6-.6-.9s.3-.4.6-.3zm8.7.1l6.7 3.9c.3.2.6.6.6.9s-.3.5-.6.3l-6.7-3.9c-.3-.2-.6-.6-.6-.9s.3-.4.6-.3z"/></g><use xlink:href="#k" x="14.8" y="52.3" class="o"/><use xlink:href="#l" class="h"/><use xlink:href="#l" class="i j"/><use xlink:href="#m" class="h"/><use xlink:href="#m" class="i j"/><path d="M336.1 251.9l9.4 5.4c3 1.7 7.6 1.5 10.4-.5l15.5-11.4c2.8-2 2.6-5-.4-6.8l-4.7-2.7c-3-1.7-7.9-1.9-10.9-.3L336.3 246c-3.1 1.6-3.2 4.2-.2 5.9z" class="r"/><path d="M371.7 240.5l-10.8 8.4-7.9 6.2c-.8.4-1.7.6-2.5.6a7.06 7.06 0 0 1-3.8-.8l-8.4-4.9c-3-1.7-3.7-5.7-1.7-8.5.1-.1.2-.2.2-.3 1.6-2.2 4-3.7 6.8-4.3l4.3-.9c6.9-1.4 12.6-2.1 13.3-1.6l10.5 6.1z" class="l"/><path d="M365.7 245.2l.6-.5-9.5-5.5 8.3-2.6c-.3-.2-.6-.3-.8-.5l-8.3 2.6-5.7-3.3c-.4.1-.7.1-1.1.2l16.5 9.6z" class="h"/><path d="M354 254.6l7.6-5.5 10.2-7.4v-1.2-.1h-.1c-.8-.3-5.2 1.1-10.5 3.2l-3.5 1.4c-1.1.4-2.1 1-3 1.8-2.5 2.1-4.1 5.3-4.1 8.7v.2c.9 0 1.8-.2 2.5-.6l.9-.5z" class="n"/><use xlink:href="#n" class="h"/><g class="p i"><use xlink:href="#n"/></g><use xlink:href="#o" class="h"/><g opacity=".7" class="i"><use xlink:href="#o"/></g><use xlink:href="#p" class="h"/><g opacity=".3"><use xlink:href="#p"/></g><path d="M376.5 351.3c8.6-5 22.6-5 31.3 0 2.4 1.4 4.1 3 5.2 4.8-1.1 1.7-2.8 3.4-5.2 4.8-8.6 5-22.6 5-31.3 0-2.4-1.4-4.1-3-5.2-4.8 1.1-1.8 2.8-3.4 5.2-4.8z" class="s"/><use xlink:href="#q" class="h"/><g opacity=".25"><use xlink:href="#q"/></g><g class="i"><path d="M398.2 357c.2-.1.4-.3.4-.5-.3-37.4 20.3-59.8 20.5-60a.61.61 0 0 0 0-.8.61.61 0 0 0-.8 0c-.2.2-21.1 22.9-20.8 60.8a.65.65 0 0 0 .6.6c0-.1 0-.1.1-.1z"/><path d="M404.2 322.2s.1 0 .1-.1c6.7-4.2 18.7-7.4 18.8-7.4.3-.1.5-.4.4-.7s-.4-.5-.7-.4c-.5.1-12.3 3.2-19.1 7.5-.3.2-.3.5-.2.8.2.3.4.4.7.3zm2.1-5.2c.3-.1.5-.5.3-.7-2.3-5.8-6-10.2-6.2-10.4s-.6-.3-.8-.1-.3.6-.1.8c0 0 3.7 4.5 6 10.1.2.3.5.4.8.3z"/></g><use xlink:href="#r" class="h"/><use xlink:href="#r" opacity=".1"/><path d="M394.2 360.2c-.2-.1-.3-.2-.3-.5-1.4-17.9-21.4-45.7-30.2-51.4-.2-.2-.3-.5-.2-.7.2-.3.5-.3.7-.2 9 5.7 29.3 34 30.7 52.2 0 .3-.2.6-.5.6h-.2z" class="i"/><path d="M213.5 349c0-.2-3.2-11.8-3.2-11.8s1 1.1 7.7-.7c3.4-.9 7.3-3.1 7.3-3.1l1.9 8.5c1.8 3.3 7.7 1.8 14.2 1 1.1-.1 2.2-.3 3.3-.5h.1c3.5-.2 7 1.9 3.4 4.9s-9.6 4.1-15.2 5.1c-6.6 1.3-18.3 3.2-19.5-3.4z" class="q"/><path d="M260 348s.7 1.3.5 3.6c-.1 1.3-3.3 5.7-9 8.4-5.6 2.7-12.6 2.9-15.9 3.8s-6.3 2.8-10.1 3.8c-4 1-7.7 1.4-11.5-1.1-.7-1.1-1.5-3.6-1.3-3.9.7-.8 47.3-14.6 47.3-14.6z" class="n"/><use xlink:href="#s" class="h"/><use xlink:href="#s" opacity=".4"/><path d="M244.9 350s-.6-5.4-4.6-6.9c0 0-1.3-.6-2.2.3 0 0 3.7.5 5 6.9 0 0 .2.4 1 .3.2 0 .8-.2.8-.6zm-10.3-6.2s0-.2.9-.4c.7-.1 1.1.1 1.1.1s3 1.3 3.6 7c0 0 0 .7-.9.9s-1.1-.6-1.1-.6-.6-5.9-3.6-7zm-3.2.1s.2-.3.9-.3c.9 0 1.1.3 1.1.3s2.1 2.2 2.2 6.9c0 0 .1.8-1 .9s-1-.8-1-.8-.4-6-2.2-7z" fill="#fafafa"/><path d="M209.3 270.2c4.9 14.7 17.9 65.5 17.9 65.5s-8.5 7.6-17.6 4.1l-21.9-63.2 21.6-6.4z" class="l"/><path d="M247.1 365.4c-1-1.5-4.8-11.8-4.8-11.8s3.9 2.2 10.7.6c3.4-.8 6.6-4.5 6.6-4.5l2.9 9.9c1.7 3.3 7.2 2.2 13.7 1.6 1.1-.1 2.2-.3 3.3-.4h.1c3.5-.1 7 2.1 3.3 5s-9.7 3.9-15.3 4.7c-6.6 1.1-16.7.5-20.5-5.1z" class="q"/><path d="M297.6 365.1s.7 1.5.4 3.8c-.2 1.4-3.7 6-9.8 8.7s-13.6 2.7-17.2 3.7c-3.5.9-6.8 2.9-11 3.8-4.3.9-8.3 1.3-12.3-1.5-.7-1.2-1.5-3.9-1.3-4.2.7-.7 51.2-14.3 51.2-14.3z" class="n"/><use xlink:href="#t" class="h"/><use xlink:href="#t" opacity=".4"/><path d="M281.2 366.8s-.5-5.9-4.7-7.5c0 0-1.4-.7-2.4.3 0 0 4 .7 5.1 7.6 0 0 .2.5 1.1.3.3-.1.9-.2.9-.7zm-10.8-6.9s0-.2 1-.4c.7-.1 1.2.2 1.2.2s3.2 1.5 3.6 7.6c0 0 0 .7-1 .9s-1.1-.6-1.1-.6-.5-6.4-3.7-7.7zm-3.5.1s.2-.4.9-.3c1 0 1.2.4 1.2.4s2.2 2.4 2.1 7.5c0 0 .1.9-1.1.9-1.2.1-1-.9-1-.9s-.2-6.5-2.1-7.6z" fill="#fafafa"/><g class="m"><path d="M243.8 287.6c3.9 11.9 13.7 45.7 18.2 63 0 0-8.1 7.3-18.5 6.6l-25.1-65.1 10-6.2 15.4 1.7zM161.2 450a1.58 1.58 0 0 0 1.6-1.6V343.8a1.6 1.6 0 1 0-3.2 0v104.6a1.58 1.58 0 0 0 1.6 1.6zm-64.7-38c.6 0 1.3-.4 1.5-1l32.1-81.2c.3-.8-.1-1.8-.9-2.1s-1.8.1-2.1.9L95 409.7c-.3.8.1 1.8.9 2.1.2.1.4.2.6.2z"/><path d="M100.4 402.2c.4 0 .9-.2 1.2-.5l59.7-63.2 59.6 62.9c.6.7 1.6.7 2.3.1s.7-1.6.1-2.3l-60.8-64.1c-.3-.3-.7-.5-1.2-.5-.4 0-.9.2-1.2.5l-60.9 64.4c-.6.7-.6 1.7.1 2.3.3.3.7.4 1.1.4z"/><path d="M225.9 412c.2 0 .4 0 .6-.1.8-.3 1.2-1.3.9-2.1l-32.1-81.2c-.3-.8-1.3-1.2-2.1-.9s-1.2 1.3-.9 2.1l32.1 81.2c.3.6.9 1 1.5 1z"/></g><use xlink:href="#u" class="h"/><g opacity=".4"><use xlink:href="#u"/></g><path d="M169.3 338.4c9.7 8.7 19.8 1.2 35.7-9.2 18.1-11.7 21.6-21.3 21.6-21.3s0 7.2-1.3 10.6-4.3 7.2-17.3 16.2-22.5 13.5-31.3 15.2l-6.9-1" class="h"/><path d="M205.1 329.3c18.1-11.7 21.6-21.3 21.6-21.3s0 7.2-1.3 10.6-4.3 7.2-17.3 16.2-22.5 13.5-31.3 15.2l-6.9-1-.5-10.5c9.6 8.7 19.7 1.2 35.7-9.2z" class="p"/><path d="M99 399.2l-5 11.4c0 .1 0 .2-.1.3v.2c0 .2.3.6.6.8.7.5 1.9.5 2.7.1.3-.1.5-.3.5-.5v-.2l4.6-10.7-3.3-1.4zm124.7.5l4.2 11.2v.3.2c0 .2-.3.5-.6.7-.7.4-1.9.4-2.6 0-.3-.2-.4-.3-.5-.5v-.2l-3.9-10.5 3.4-1.2zm-64.3 40.6v9.3c0 .3.2.6.5.8.7.4 1.9.4 2.7 0a.82.82 0 0 0 .5-.8v-9.3c-1.2-.6-2.5-.6-3.7 0z" class="h"/><path d="M122.5 268.7c3.8 4.5 38.7-5.6 48-6.8 14.9-2 27-3.5 32.1-1.9s7.2 4.2 8.8 10.2l2.8 10.8s-24.8 9.5-44.3 11.8c-19.6 2.3-47.4-24.1-47.4-24.1z" class="l"/><path d="M116 275.3c-3.9 14.7-7.3 31.9 1.6 41.3 6 6.3 36.3 22.7 55.8 16.3 19.2-6.4 59.1-36 63.1-38.9 4-3 7.6-5 7.3-6.3-5.4-17.8-13.2-19.2-27.8-16-17.8 3.9-56.9 19.9-56.9 19.9L116 275.3z" class="m"/><path d="M204.5 180.5l-13.4 15.2-21.7-10.3 15.2-21z" class="q"/><path d="M221.2 151.7s5.5 7.9 4.9 8.8c-.6.8-4.5 1.6-4.5 1.6l-.4-10.4z" fill="#f28f8f"/><circle cx="221.1" cy="150.3" r="6" fill="none" stroke="#263238" stroke-width="1.207"/><path d="M205.9 129.7c10.8 2 14 6.7 15.4 23.7 1.5 17.8-.2 23.5-2.5 25.9-1.5 1.7-10.3 2.2-14.8 1-5.6-1.4-18.2-5.6-24.3-14.4-7.2-10.4-9.3-24.7-2-30.7 10.2-8.5 23.8-6.3 28.2-5.5z" class="q"/><path d="M204.5 180.5c4.7 1.1 11.7.4 13.8-.8-.2.1-3.5.9-7.8-.3-4.4-1.2-7.2-3.2-7.2-3.2l1.2 4.3z" fill="#f28f8f"/><g class="n"><path d="M223.3 136.7c-3 2.1-6.7 3-10.4 3.5.3 2.9-.6 5.8-1.5 8.5-.6 1.9-2.9 7.9-5.3 4.6-1.8-2.4-3.4-4.6-6.8-4-5.6 1-6.2 8.1-2.5 12.4 3.6 4.3 6.9 2.5 6.9 2.5s.5 7.7-3.5 13.1c0 0-6.1 3.7-14.6.9-5.4-1.8-13.1-8.5-16-13.8-7.8-14.5-7.9-28.4 1.6-32.7.9-7 6.3-10.2 12.5-11.8 8.6-2.2 17.5 3.2 25.8-.3 1.7-.7 3.4-1.8 5.1-2.5 1-.4 2.2-.6 3.1 0 .8.5 1.1 1.5 1.3 2.4.4 1.7.5 3.5-.3 5 1.3-.6 2.5-1.2 3.9-1.4s2.9 0 3.9.9c1 .8 1.5 2.1 1.6 3.4.5 3.7-1.7 7.2-4.8 9.3z"/><path d="M171.2 134.1l-6.5-3.6c1-1.8 3.3-2.4 5.1-1.4 1.8.9 2.4 3.2 1.4 5z"/></g><path d="M206.2 153.3l20.9-3.9" fill="none" stroke="#263238" stroke-width="1.027" stroke-miterlimit="10"/><path d="M249.9 189.4c-.6-.9-1.8-1.1-2.8-1.5-1.9-.7-3.4-2.2-5.3-3-2.1-.9-4.5-1-6.7-.4-.8.2-1.5.4-2.2.7-1.4.5-2.7 1.3-4 2-5.3 3.1-9.3 10.2-14.5 13.5l-5.5 3.4 12.4 11.1c2.6-2.1 5-4 6.1-4.7 3.1-1.8 6.2-1.9 9.6-2.4 2.4-.3 4.7-1.1 7-1.8.8-.2 1.7-.6 2.1-1.3.4-1-.3-2.2-1.3-2.6-1.1-.4-2.5-.3-3.6-.5-.9-.1-3.3.4-3.8-.5-.3-.5.1-1.1.4-1.5 2.2-2.7 4.9-5.6 8.3-6.4 1.1-.3 2.2-.5 3-1.2s1.3-2 .8-2.9z" class="q"/><g class="h"><path d="M175.5 177c-13.2-7.2-25.2-2.6-29.6 6.7-3.9 8.4-12.2 40.8-12.2 40.8 4 7.5 41.8-47.5 41.8-47.5z"/><path d="M173.5 179.6l2-2.6c-14.9-7.1-28.3 2.2-40 20.5-12.7 19.7-19.3 48-19.4 77.9 0 0 2.5 13.4 19.5 20.1 18 7.1 43.1 4.1 50.9-14.6 0 0 .2-18.6 5.8-27.8a1277.57 1277.57 0 0 1 18.6-28.6c5.5-8.2 9.8-27-1.7-33.8-3.4-2-4.8-2.6-9.4-4.8-10.6 3.5-27.7-2.1-26.3-6.3z"/></g><path d="M173.5 179.7l1.9-2.7c-14.9-7.1-28.3 2.2-40 20.5-12.7 19.7-19.3 48-19.4 77.9 0 0 2.5 13.4 19.5 20.1 18 7.1 43.1 4.1 50.9-14.6 0 0 .2-18.6 5.8-27.8a1277.57 1277.57 0 0 1 18.6-28.6c5.5-8.2 9.8-27-1.7-33.8-3.4-2-4.8-2.6-9.4-4.8-10.5 3.5-27.5-2.1-26.2-6.2z" opacity=".75" class="i"/><path d="M215.7 212.7c.8-3.6 1-7.4.5-10.9-2.7 6.3-6.5 12.2-11.3 17.2-6.1 6.4-13.6 11.4-19.2 18.2-6 7.2-10.2 15.9-15.2 23.7-2 3.1-4.7 9.2-8.5 9.5-4.5.3-8.9-5.2-11.4-9.1-3.9-6.1-7.3-13.7-12.2-19-4.3-4.7-10.9-10.7-16.8-7.9h0l-1.2 4.7c-.4 1.6-.8 3.2-1.1 4.8v.2l-.9 4.9v.3c-.3 1.6-.5 3.2-.8 4.9a151.84 151.84 0 0 0-1.5 21.4s2.5 13.4 19.5 20.1c18 7.1 43.1 4.1 50.9-14.6 0 0 .2-18.6 5.8-27.8.6-.9 1.3-2 2-3.3 0-.1.1-.1.1-.2.6-1 1.4-2.1 2.1-3.3 0-.1.1-.1.1-.2 0 0 0-.1.1-.1l5.3-8.2c.3-.4.6-.9.9-1.3l5.4-8.2 1.7-2.6c.2-.4.5-.7.7-1.1l.6-.9c.1-.1.1-.2.2-.3.1-.2.3-.5.4-.7.1-.1.1-.2.2-.3.2-.3.3-.6.4-.9 0-.1.1-.2.1-.2l.6-1.2v-.1c.2-.4.3-.8.5-1.1 0-.1.1-.2.1-.3.1-.4.3-.7.4-1.1v-.1-.1c.2-.7.5-1.4.7-2.1.4-1.2.6-1.9.8-2.7z" opacity=".1" class="h"/><path d="M284.9 230.8c-.9 1.2-2 2.2-3.1 3.2-4.6 4.1-9.9 6.1-16.1 10.1-5 3.3-12.7 8-19.2 12-7.3 4.6-16.1 8.3-21 9.7-6 1.8-9.4 1.9-13-7.8-1.8-4.8-3.1-9.6-4.7-14.5l-6.6-21.6s-8-19.8 10-29.8c7.8 4.5 10.8 6.3 13.3 15.7 2.9 11.2 7.7 33.4 7.7 33.4 6.4-2.2 12.6-4.9 18.6-7.9 2.3-1.1 5.1-1.9 6.7-4 1.1-1.4 2-2.9 2.9-4.5.8-1.4 1.3-2.9 2.2-4.2 1.6-2.5 3.8-4.5 5.9-6.5.4-.4.9-.8 1.4-.8.6 0 1.2.4 1.5.9.7 1.2 0 2.3-.3 3.5l-1.2 4c4.6-2.7 8.5-6.3 11.5-10.8.3-.4.5-.8.9-1.1s.9-.5 1.3-.5c1.2.1 2.4 2.1 2.5 3.2s-.2 2.3.1 3.4c.3 1 1 1.9 1.3 2.9s.6 2.2.7 3.2c.3 2.4-.6 4.7-1.8 6.8-.6.8-1 1.4-1.5 2z" class="q"/><path d="M210.1 191.3c6.9 2.8 11.8 5.9 14.9 16.4s6.5 27.2 6.5 27.2.1 3.5-8.3 8.4c-8.3 4.9-16.1 2.2-16.1 2.2l-6.3-20.2c.1 0-11.1-27 9.3-34zm-40.2 157.6c-5.5-.3-9.8-4.3-22.9-9.8-24.2-10.1-42.3-18.1-49.2-30.8s-11.8-49.2-10.1-65c.2-2.1.6-3.8 1.2-5.2l-1.7-.2 4.4-3.7h0c4.5-3.7 11.9-.4 17.4 2.6 15.8 8.6 28.2 17 38 47.2 7.4 22.7 12.2 43.4 22.4 54.5" class="h"/><path d="M88.9 238.1l-1.7-.2 4.4-3.7h0c4.5-3.7 11.9-.4 17.4 2.6 15.8 8.6 28.2 17 38 47.2 7.4 22.7 12.2 43.4 22.4 54.5l.5 10.5c-5.5-.3-9.8-4.3-22.9-9.8-24.2-10.1-42.3-18.1-49.2-30.8s-11.8-49.2-10.1-65c.3-2.1.7-3.9 1.2-5.3z" opacity=".3"/><path d="M104.4 240.6c15.8 8.6 28.2 17 38 47.2s15.1 56.9 34.4 62.1c0 0-8.7 3.5-35.4-7.8-8.5-3.6-18.8-10.1-25.6-13.9-13.3-7.4-21.3-13.6-22.6-15.8-7-12.6-11.8-49.2-10.1-65 1.8-16 13.4-11.1 21.3-6.8zm88.9-133.9l-4.4-8.2 3.5-10.1v-6.2l-10.8 6.2v6.2l4.6 8 .3.3h0l6.8 3.8z" class="h"/><path d="M193.3 106.7l-4.4-8.2 3.5-10.1v-6.2l-10.8 6.2v6.2l4.6 8 .3.3h0l6.8 3.8z" opacity=".2"/><path d="M219 32.7c0-2.1-1.4-4.6-3.2-5.6l-2.6-1.5c-1.8-1-4.7-1-6.5 0l-40.3 23.3c-1.8 1-3.2 3.5-3.2 5.6v44.3c0 2.1 1.4 4.6 3.2 5.6l2.6 1.5c1.8 1 4.7 1 6.5 0l13-7.5 4.6 8c.3.5 1.1.4 1.2-.1l4.9-14.1 16.6-9.6c1.8-1 3.2-3.5 3.2-5.6V32.7z" class="h"/><path d="M163.2 98.8c0 2.1 1.4 4.6 3.2 5.6l2.6 1.5c1.6.9 4.1 1 5.9.3-1.5.6-2.7-.3-2.7-2.1V59.8c0-1 .4-2.2.9-3.2l-9.1-5.2a6.48 6.48 0 0 0-.9 3.2v44.2z" opacity=".2"/><g class="i"><path d="M218.9 31.8c-.4-1.4-1.6-1.8-3.1-.9l-40.3 23.3c-.9.5-1.7 1.4-2.3 2.4l-9.1-5.2c.6-1 1.4-1.9 2.3-2.4l40.3-23.3c1.8-1 4.7-1 6.5 0l2.6 1.5c1.5.8 2.8 2.8 3.1 4.6z" class="p"/><path d="M178.2 77.2c0-.4.1-.7.2-.9.1-.3.3-.5.5-.9l8.8-14.2c.1-.1.1-.1.1-.2l.1-.1c.1-.1.2-.1.3 0s.1.2.1.4v5.5c0 .4-.1.8-.3 1.1s-.3.6-.4.7l-4.5 6.9 4.5 2.1a.76.76 0 0 1 .4.2c.2.1.3.4.3.8v3.9c0 .2 0 .4-.1.6a1.38 1.38 0 0 1-.3.4h-.1-.1l-8.8-4c-.2-.1-.4-.2-.5-.3s-.2-.4-.2-.7v-1.3zm19.1-21.9l.3-.9c.1-.3.4-.5.6-.7l2.9-1.7c.1-.1.2-.1.3 0s.1.2.1.4v.3l-7.4 31.5c-.1.3-.2.5-.3.9-.1.3-.4.5-.7.7l-2.9 1.7c-.1.1-.2.1-.3 0s-.1-.2-.1-.4v-.3l7.5-31.5zm16.1 5.1c0 .4-.1.7-.2.9-.1.3-.3.5-.5.9L204 76.3c-.1.1-.1.1-.1.2l-.1.1c-.1.1-.2.1-.3 0s-.1-.2-.1-.4v-5.5c0-.4.1-.8.3-1.1s.3-.5.4-.7l3.8-5.9-3.8-1.5a.76.76 0 0 1-.4-.2c-.2-.1-.3-.4-.3-.8V55c0-.2 0-.4.1-.6s.2-.3.3-.4h.1.1l8.8 4c.2.1.4.2.5.3s.2.4.2.7v1.4z"/></g><path d="M96.5 27.2l-53.9 31c-.7.4-1.3 1.5-1.3 2.3v30.1c0 .9.6 1.9 1.3 2.3l5.3 3c.7.4 1.9.4 2.7 0l53.9-31c.7-.4 1.3-1.5 1.3-2.3V32.5c0-.9-.6-1.9-1.3-2.3l-5.3-3c-.8-.4-2-.4-2.7 0z" class="n"/><use xlink:href="#v" class="m"/><path d="M104.5 31.7l-53.9 31c-.7.4-1.3 1.5-1.3 2.3v30.1c0 .9.6 1.2 1.3.8l53.9-31c.7-.4 1.3-1.5 1.3-2.3V32.5c0-.8-.6-1.2-1.3-.8z" class="l"/><path d="M62.6 70.5v1 1.3 1.3 1c0 .4.1.8.2 1.1s.2.6.4.8.4.3.7.3.6-.1 1-.3.7-.5 1-.8.5-.6.6-.9c.2-.3.3-.6.4-.9s.2-.6.2-.8c.1-.3.1-.6.2-.7a.78.78 0 0 1 .4-.4l2.3-1.3c.1-.1.2-.1.3 0s.1.2.1.3c0 .9-.2 1.8-.4 2.8-.3 1-.7 1.9-1.1 2.7-.5.9-1 1.7-1.7 2.4-.6.7-1.4 1.3-2.1 1.7-.8.5-1.6.7-2.2.7s-1.2-.2-1.7-.6-.8-.9-1.1-1.7c-.2-.7-.4-1.6-.4-2.5v-2.3-2.4c0-1 .2-2 .4-3 .3-1 .6-2 1.1-2.9s1-1.8 1.7-2.5c.7-.8 1.4-1.4 2.2-1.9.8-.4 1.5-.7 2.1-.7s1.2.1 1.7.4.9.8 1.1 1.4c.3.6.4 1.4.4 2.3 0 .2 0 .3-.1.5s-.2.3-.3.3l-2.3 1.3c-.2.1-.3.1-.4.1-.3-.2-.3-.3-.4-.6 0-.2-.1-.4-.2-.6s-.2-.4-.4-.5-.4-.2-.6-.2c-.3 0-.6.1-1 .3s-.7.5-1 .8-.5.7-.7 1.1-.3.8-.4 1.2c.1.6 0 1 0 1.4zm14.6-15.8c.7-.4 1.4-.6 2-.7.6 0 1.1.1 1.6.3.4.3.8.6 1 1.1.3.5.4 1 .4 1.5 0 .2 0 .3-.1.5s-.2.3-.2.3L79.6 59c-.2.1-.3.1-.4.1s-.2-.1-.3-.1l-.2-.2c-.1-.1-.2-.1-.3-.2s-.3-.1-.5 0c-.2 0-.5.1-.8.3-.2.1-.4.3-.6.4-.2.2-.4.3-.5.5-.2.2-.3.4-.4.6s-.1.5-.1.7c0 .3.1.5.2.6.1.3.3.3.6.3s.6 0 1-.2l1.6-.4c.6-.2 1.2-.2 1.7-.2s.9.2 1.2.4c.3.3.5.7.7 1.2s.2 1.2.2 2c0 .9-.1 1.8-.4 2.6-.3.9-.6 1.7-1.1 2.5s-1 1.5-1.7 2.1c-.6.6-1.4 1.2-2.1 1.6-.8.5-1.5.7-2.1.8s-1.2 0-1.7-.3-.8-.6-1.1-1.1c-.3-.4-.5-1-.5-1.7 0-.2 0-.3.1-.5s.2-.3.2-.3l2.3-1.3c.2-.1.3-.1.4-.1s.2 0 .3.1l.2.2a1.38 1.38 0 0 0 .4.3c.2.1.3.1.6.1.2 0 .5-.1.9-.3.6-.4 1.1-.7 1.5-1.2.4-.4.6-.9.6-1.5 0-.3-.1-.4-.2-.5s-.4-.1-.7-.1-.7.1-1.1.2l-1.6.4c-1.2.3-2 .1-2.6-.5-.5-.6-.8-1.7-.8-3.2 0-.8.1-1.5.3-2.4a8.18 8.18 0 0 1 1-2.4c.4-.8.9-1.5 1.5-2.1.5-.5 1.2-1 1.9-1.5zm12.5-7.2c.7-.4 1.4-.6 2-.7.6 0 1.1.1 1.6.3.4.3.8.6 1 1.1.3.5.4 1 .4 1.5 0 .2 0 .3-.1.5s-.2.3-.2.3l-2.3 1.3c-.1.2-.2.3-.3.2-.1 0-.2-.1-.3-.1l-.2-.2c-.1-.1-.2-.1-.3-.2s-.3-.1-.5 0c-.2 0-.5.1-.8.3-.2.1-.4.3-.6.4-.2.2-.4.3-.5.5-.2.2-.3.4-.4.6s-.1.5-.1.7c0 .3.1.5.2.6s.3.2.5.2c.3 0 .6 0 1-.2l1.6-.4c.6-.2 1.2-.2 1.7-.2s.9.2 1.2.4c.3.3.6.7.7 1.2.2.5.2 1.2.2 2 0 .9-.1 1.8-.4 2.6-.3.9-.6 1.7-1.1 2.5s-1 1.5-1.7 2.1c-.6.6-1.4 1.2-2.1 1.6-.8.5-1.5.7-2.1.8s-1.2 0-1.7-.3-.8-.6-1.1-1.1-.4-1.1-.4-1.7c0-.2 0-.3.1-.5s.2-.3.2-.3l2.3-1.3c.2-.1.3-.1.4-.1s.2 0 .3.1l.2.2a1.38 1.38 0 0 0 .4.3c.2.1.3.1.6.1.2 0 .5-.1.9-.3.6-.4 1.1-.7 1.5-1.2.4-.4.6-.9.6-1.5 0-.3-.1-.4-.2-.5s-.4-.1-.7-.1-.7.1-1.1.2l-1.6.4c-1.2.3-2 .1-2.6-.5-.5-.6-.8-1.7-.8-3.2 0-.8.1-1.5.3-2.4a8.18 8.18 0 0 1 1-2.4c.4-.8.9-1.5 1.5-2.1.4-.5 1.1-1 1.8-1.5z" class="t"/><path d="M96.5 89.7l-53.9 31c-.7.4-1.3 1.5-1.3 2.3v30.1c0 .9.6 1.9 1.3 2.3l5.3 3c.7.4 1.9.4 2.7 0l53.9-31c.7-.4 1.3-1.5 1.3-2.3V95c0-.9-.6-1.9-1.3-2.3l-5.3-3c-.8-.4-2-.4-2.7 0z" class="n"/><use xlink:href="#v" y="62.5" class="m"/><path d="M104.5 94.3l-53.9 31c-.7.4-1.3 1.5-1.3 2.3v30.1c0 .9.6 1.2 1.3.8l53.9-31c.7-.4 1.3-1.5 1.3-2.3V95c0-.8-.6-1.2-1.3-.7z" class="l"/><path d="M62.9 125.8c.1-.1.2-.1.3 0s.1.2.1.4v17.1c0 .2 0 .4-.1.6a1.38 1.38 0 0 1-.3.4l-2.3 1.3c-.1.1-.2.1-.3 0s-.1-.2-.1-.4v-6.5l-3.8 2.2v6.5c0 .2 0 .4-.1.6s-.2.3-.3.4l-2.3 1.3c-.1.1-.2.1-.3 0s-.1-.2-.1-.4v-17.1c0-.2 0-.4.1-.6a1.38 1.38 0 0 1 .3-.4l2.3-1.3c.1-.1.2-.1.3 0s.1.2.1.4v6.4l3.8-2.2v-6.4c0-.2 0-.4.1-.6s.2-.3.3-.4l2.3-1.3zm12.5-7.2c.1-.1.2-.1.3 0s.1.2.1.4v2.8c0 .2 0 .4-.1.6a1.38 1.38 0 0 1-.3.4l-3 1.7v13.6c0 .2 0 .4-.1.6a1.38 1.38 0 0 1-.3.4l-2.3 1.3c-.1.1-.2.1-.3 0s-.1-.2-.1-.4v-13.6l-3 1.7c-.1.1-.2.1-.3 0s-.1-.2-.1-.4v-2.8c0-.2 0-.4.1-.6s.2-.3.3-.4l9.1-5.3zm7.9 9.3c-.1-.1-.2-.2-.2-.3l-1.6-3.4v8.8c0 .2 0 .4-.1.6s-.2.3-.3.4l-2.3 1.3c-.1.1-.2.1-.3 0s-.1-.2-.1-.4v-17.1c0-.2 0-.4.1-.6s.2-.3.3-.4l2-1.2c.2-.1.4-.1.5 0s.2.2.2.3l2.8 5.7 2.8-8.9c0-.1.1-.3.2-.6s.3-.5.5-.6l2-1.2c.1-.1.2-.1.3 0s.1.2.1.4v17.1c0 .2 0 .4-.1.6a1.38 1.38 0 0 1-.3.4l-2.3 1.3c-.1.1-.2.1-.3 0s-.1-.2-.1-.4v-8.8l-1.6 5.3c-.1.2-.1.4-.2.6s-.2.4-.4.5l-1.1.6c-.2.1-.4.1-.5 0zm18.7-10.4c.1-.1.2-.1.3 0s.1.2.1.4v2.8c0 .2 0 .4-.1.6a1.38 1.38 0 0 1-.3.4l-8 4.6c-.1.1-.2.1-.3 0s-.1-.2-.1-.4v-17.1c0-.2 0-.4.1-.6s.2-.3.3-.4l2.3-1.3c.1-.1.2-.1.3 0s.1.2.1.4v13.6l5.3-3z" class="t"/><path d="M96.5 152.2l-53.9 31c-.7.4-1.3 1.5-1.3 2.3v30.1c0 .9.6 1.9 1.3 2.3l5.3 3c.7.4 1.9.4 2.7 0l53.9-31c.7-.4 1.3-1.5 1.3-2.3v-30.1c0-.9-.6-1.9-1.3-2.3l-5.3-3c-.8-.4-2-.4-2.7 0z" class="n"/><use xlink:href="#v" y="125" class="m"/><path d="M104.5 156.8l-53.9 31c-.7.4-1.3 1.5-1.3 2.3v30.1c0 .9.6 1.2 1.3.8l53.9-31c.7-.4 1.3-1.5 1.3-2.3v-30.1c0-.9-.6-1.3-1.3-.8z" class="l"/><path d="M63.6 194.9v1 1.3 1.3 1c0 .4.1.8.2 1.1s.2.6.4.8.4.3.7.3.6-.1 1-.3.7-.5 1-.8.5-.6.6-.9c.2-.3.3-.6.4-.9s.2-.6.2-.8c.1-.3.1-.6.2-.7a.78.78 0 0 1 .4-.4l2.3-1.3c.1-.1.2-.1.3 0s.1.2.1.3c0 .9-.2 1.8-.4 2.8-.3 1-.7 1.9-1.1 2.7-.5.9-1 1.7-1.7 2.4-.6.7-1.4 1.3-2.1 1.7-.8.5-1.6.7-2.2.7s-1.2-.2-1.7-.6-.8-.9-1.1-1.7c-.2-.7-.4-1.6-.4-2.5v-2.3-2.4c0-1 .2-2 .4-3 .3-1 .6-2 1.1-2.9s1-1.8 1.7-2.5c.7-.8 1.4-1.4 2.2-1.9.8-.4 1.5-.7 2.1-.7s1.2.1 1.7.4.9.8 1.1 1.4c.3.6.4 1.4.4 2.3 0 .2 0 .3-.1.5s-.2.3-.3.3l-2.3 1.3c-.2.1-.3.1-.4.1-.1-.1-.1-.2-.2-.5 0-.2-.1-.4-.2-.6s-.2-.4-.4-.5-.4-.2-.6-.2c-.3 0-.6.1-1 .3s-.7.5-1 .8-.5.7-.7 1.1-.3.8-.4 1.2l-.2 1.3zm15.8-3.5v4.4c0 .2 0 .4-.1.6a1.38 1.38 0 0 1-.3.4l-2.2 1.3c-.1.1-.2.1-.3 0s-.1-.2-.1-.4v-4.4l-2.7 1.5c-.1.1-.2.1-.3 0s-.1-.2-.1-.4v-2.7c0-.2 0-.4.1-.6a1.38 1.38 0 0 1 .3-.4l2.7-1.5v-4.4c0-.2 0-.4.1-.6s.2-.3.3-.4l2.2-1.3c.1-.1.2-.1.3 0s.1.2.1.4v4.4l2.7-1.5c.1-.1.2-.1.3 0s.1.2.1.4v2.7c0 .2 0 .4-.1.6s-.2.3-.3.4l-2.7 1.5zm11.4-6.6v4.4c0 .2 0 .4-.1.6a1.38 1.38 0 0 1-.3.4l-2.2 1.3c-.1.1-.2.1-.3 0s-.1-.2-.1-.4v-4.4l-2.7 1.5c-.1.1-.2.1-.3 0s-.1-.2-.1-.4V185c0-.2 0-.4.1-.6a1.38 1.38 0 0 1 .3-.4l2.7-1.5v-4.4c0-.2 0-.4.1-.6s.2-.3.3-.4l2.2-1.3c.1-.1.2-.1.3 0s.1.2.1.4v4.4l2.7-1.5c.1-.1.2-.1.3 0s.1.2.1.4v2.7c0 .2 0 .4-.1.6a1.38 1.38 0 0 1-.3.4l-2.7 1.6z" class="t"/><defs ><path id="B" d="M453 235.6v-.8c0-1.3-.9-2.9-2-3.5L272 128c-1.1-.6-2.9-.6-4.1 0l-110.1 63.6c-1.1.6-2 2.2-2 3.5v.8c0 1.3.9 2.9 2 3.5l179 103.3c1.1.6 2.9.6 4.1 0L451 239.1c1.1-.6 2-2.2 2-3.5z"/><path id="C" d="M338.8 297.7v5.5c.7 0 1.5-.2 2-.5L451 239.1c1.1-.7 2-2.2 2-3.5v-.8c0-1.1-.7-2.5-1.7-3.3.7.6.6 1.5-.4 2.1l-110.1 63.6c-.5.4-1.2.5-2 .5z"/><path id="D" d="M451 233.6l-110.1 63.6c-1.1.6-2.9.6-4.1 0L157.8 194c-1.1-.6-1.1-1.7 0-2.4L267.9 128c1.1-.6 2.9-.6 4.1 0l179 103.3c1.1.6 1.1 1.7 0 2.3z"/><path id="E" d="M385.6 203.7V127c0-.8-.5-1.7-1.2-2.1L279.7 64.5c-.7-.4-1.2-.1-1.2.7v76.7c0 .8.5 1.7 1.2 2.1l104.7 60.4c.6.4 1.2.1 1.2-.7z"/><path id="F" d="M342.7 109.5l10.3 5.9c.4.2.7.7.7 1.2 0 .4-.3.6-.7.4l-10.3-5.9c-.4-.2-.7-.7-.7-1.2s.3-.6.7-.4z"/><path id="G" d="M332.3 85.5l13.7 7.9c.4.2.7.7.7 1.2 0 .4-.3.6-.7.4l-13.7-8c-.4-.2-.7-.7-.7-1.2 0-.4.3-.6.7-.3z"/><path id="H" d="M332.3 91.5l6.4 3.7c.4.2.7.7.7 1.2 0 .4-.3.6-.7.4l-6.4-3.7c-.4-.2-.7-.7-.7-1.2s.3-.7.7-.4z"/><path id="I" d="M332.3 103.5l6.4 3.7c.4.2.7.7.7 1.2 0 .4-.3.6-.7.4l-6.4-3.7c-.4-.2-.7-.7-.7-1.2s.3-.6.7-.4z"/><path id="J" d="M332.3 109.5l6.4 3.7c.4.2.7.7.7 1.2s-.3.6-.7.4l-6.4-3.7c-.4-.2-.7-.7-.7-1.2s.3-.6.7-.4z"/><path id="K" d="M348.7 94.9l8.2 4.8c.4.2.7.7.7 1.2 0 .4-.3.6-.7.4l-8.2-4.8c-.4-.2-.7-.7-.7-1.2s.3-.6.7-.4z"/><path id="L" d="M359.1 106.9l57.2 33.1c.4.2.7.7.7 1.2 0 .4-.3.6-.7.4l-57.2-33.1c-.4-.2-.7-.7-.7-1.2s.3-.6.7-.4z"/><path id="M" d="M342.7 133.6l74 42.7c.4.2.7.7.7 1.2s-.3.6-.7.4l-74-42.7c-.4-.2-.7-.7-.7-1.2 0-.4.3-.6.7-.4z"/><path id="N" d="M332.3 127.6l6.4 3.7c.4.2.7.7.7 1.2 0 .4-.3.6-.7.4l-6.4-3.7c-.4-.2-.7-.7-.7-1.2 0-.4.3-.6.7-.4z"/><path id="O" d="M322.3 73.4l3.8 2.2c.4.2.7.7.7 1.2v1.4c0 .4-.3.6-.7.4l-3.8-2.2c-.4-.2-.7-.7-.7-1.2v-1.4c0-.4.3-.6.7-.4z"/><path id="P" d="M322.3 79.5l3.8 2.2c.4.2.7.7.7 1.2v1.4c0 .4-.3.6-.7.4l-3.8-2.2c-.4-.2-.7-.7-.7-1.2v-1.4c0-.5.3-.6.7-.4z"/><path id="Q" d="M322.3 115.9l3.8 2.2c.4.2.7.7.7 1.2v1.4c0 .4-.3.6-.7.4l-3.8-2.2c-.4-.2-.7-.7-.7-1.2v-1.4c0-.5.3-.7.7-.4z"/><path id="R" d="M299.2 77.1l1.9 1.1c.4.2.7.7.7 1.2 0 .4-.3.6-.7.4l-1.9-1.1c-.4-.2-.7-.7-.7-1.2s.3-.7.7-.4z"/><path id="S" d="M299.2 57.8l1.9 1.1c.4.2.7.7.7 1.2 0 .4-.3.6-.7.4l-1.9-1.1c-.4-.2-.7-.7-.7-1.2s.3-.6.7-.4z"/><path id="T" d="M301.8 63.1l1.9 1.1c.4.2.7.7.7 1.2 0 .4-.3.6-.7.4l-1.9-1.1c-.4-.2-.7-.7-.7-1.2 0-.4.3-.6.7-.4z"/><path id="U" d="M304.3 60.7l11.5 6.6c.4.2.7.7.7 1.2 0 .4-.3.6-.7.4l-11.5-6.6c-.4-.2-.7-.7-.7-1.2 0-.4.3-.6.7-.4z"/><path id="V" d="M304.3 80l11.5 6.6c.4.2.7.7.7 1.2s-.3.6-.7.4l-11.5-6.6c-.4-.2-.7-.7-.7-1.2 0-.4.3-.6.7-.4z"/><path id="W" d="M307 66.1l8.8 5.1c.4.2.7.7.7 1.2 0 .4-.3.6-.7.4l-8.8-5.1c-.4-.2-.7-.7-.7-1.2 0-.4.3-.6.7-.4z"/><path id="X" d="M307 70l8.8 5.1c.4.2.7.7.7 1.2 0 .4-.3.6-.7.4l-8.8-5.1c-.4-.2-.7-.7-.7-1.2s.3-.6.7-.4z"/><path id="Y" d="M304.3 91.9l11.5 6.6c.4.2.7.7.7 1.2 0 .4-.3.6-.7.4l-11.5-6.6c-.4-.2-.7-.7-.7-1.2s.3-.6.7-.4z"/><path id="Z" d="M307 97.3l8.8 5.1c.4.2.7.7.7 1.2 0 .4-.3.6-.7.4l-8.8-5.1c-.4-.2-.7-.7-.7-1.2s.3-.7.7-.4z"/><path id="a" d="M304.3 103.5l11.5 6.6c.4.2.7.7.7 1.2 0 .4-.3.6-.7.4l-11.5-6.6c-.4-.2-.7-.7-.7-1.2s.3-.7.7-.4z"/><path id="b" d="M307 112.7l8.8 5.1c.4.2.7.7.7 1.2s-.3.6-.7.4l-8.8-5.1c-.4-.2-.7-.7-.7-1.2 0-.4.3-.6.7-.4z"/><path id="c" d="M299.2 119.8l1.9 1.1c.4.2.7.7.7 1.2s-.3.6-.7.4l-1.9-1.1c-.4-.2-.7-.7-.7-1.2 0-.4.3-.6.7-.4z"/><path id="d" d="M307 132.1l8.8 5.1c.4.2.7.7.7 1.2s-.3.6-.7.4l-8.8-5.1c-.4-.2-.7-.7-.7-1.2s.3-.7.7-.4z"/><path id="e" d="M304.3 134.5l11.5 6.6c.4.2.7.7.7 1.2s-.3.6-.7.4l-11.5-6.6c-.4-.2-.7-.7-.7-1.2s.3-.7.7-.4z"/><path id="f" d="M414.9 171.2l26.4 15.2c.3.2.6.6.6.9s-.3.5-.6.3l-26.4-15.2c-.3-.2-.6-.6-.6-.9 0-.4.3-.5.6-.3z"/><path id="g" d="M414.9 176.1l15.4 8.9c.3.2.6.6.6.9s-.3.5-.6.3l-15.4-8.9c-.3-.2-.6-.6-.6-.9 0-.4.3-.5.6-.3z"/><path id="h" d="M414.9 185.8l5.2 3c.3.2.6.6.6.9s-.3.5-.6.3l-5.2-3c-.3-.2-.6-.6-.6-.9s.3-.5.6-.3z"/><path id="i" d="M440.9 205.7l6.7 3.9c.3.2.6.6.6.9s-.3.5-.6.3l-6.7-3.9c-.3-.2-.6-.6-.6-.9.1-.3.3-.5.6-.3z"/><path id="j" d="M414.9 195.6l5.2 3c.3.2.6.6.6.9s-.3.5-.6.3l-5.2-3c-.3-.2-.6-.6-.6-.9 0-.4.3-.5.6-.3z"/><path id="k" d="M432.5 186.2l6.7 3.9c.3.2.6.6.6.9s-.3.5-.6.3l-6.7-3.9c-.3-.2-.6-.6-.6-.9 0-.4.3-.5.6-.3z"/><path id="l" d="M423.4 185.8l15.4 8.9c.3.2.6.6.6.9s-.3.5-.6.3l-15.4-8.9c-.3-.2-.6-.6-.6-.9s.3-.5.6-.3z"/><path id="m" d="M440.9 196l6.7 3.9c.3.2.6.6.6.9s-.3.5-.6.3l-6.7-3.9c-.3-.2-.6-.6-.6-.9.1-.4.3-.5.6-.3z"/><path id="n" d="M372.7 405.5c-10.4-10.7-16.5-54.3-6.4-62.8h51.5c10.1 8.5 4 52.1-6.3 62.8l-.3.3-.4.4c-.3.3-.6.6-.9.8-.1.1-.2.1-.2.2-.3.2-.5.4-.8.6-.4.3-.9.6-1.3.9-8.5 5-22.4 5-30.9 0h0 0c-.5-.3-.9-.6-1.4-.9-.3-.2-.5-.4-.7-.6-.1-.1-.2-.2-.3-.2-.3-.3-.6-.5-.9-.8l-.4-.4-.3-.3z"/><path id="o" d="M413.4 339.3c11.8 6.9 11.8 18 0 24.8-11.8 6.9-30.8 6.9-42.6 0s-11.8-18 0-24.8c11.8-6.9 30.8-6.9 42.6 0z"/><path id="p" d="M407.7 342.6c8.6 5 8.6 13.2 0 18.2s-22.6 5-31.3 0c-8.6-5-8.6-13.2 0-18.2 8.7-5 22.7-5 31.3 0z"/><path id="q" d="M387.9 329.3c-.6-1.2-1.1-2.4-1.3-3.8-.6-3.1.2-6.7 2.7-8.7 1-.8 2.3-1.3 2.8-2.5.2-.7.1-1.4 0-2.1-.5-2.7-1.4-5.4-.6-8.1.7-2.4 2.7-4.3 5-5.4s4.8-1.5 7.3-1.9c1.3-.2 2.7-.4 3.8-1.1 1.4-.8 1.9-2.2 2.8-3.5 1-1.4 2.3-2.6 3.5-3.8 2.6-2.3 5.9-4.3 9.5-4.1 7.6.3 7.4 6.9 5.2 11.8s-2.8 6.5 2 11.7c4.7 5.1 4.7 11.5-.9 15-5.6 3.6-9.3 4-7.1 10.9 2 6.1 3.2 11.3-2.4 17.8-3.6 4.2-8.6 7.2-14.9 7-1.8-.1-5.7-.9-7.3-1.7-1.7-.9-.6-2.2-1.1-3.9l-3.7-10.9c-1-2.8-1.7-5.9-3-8.6-.8-1.3-1.6-2.7-2.3-4.1z"/><path id="r" d="M392.9 361s-7 2.6-16.4.6-15.2-10.8-15.2-10.8 10.2-4.1 16.1-4.5c0 0-9.2-1.6-17.9.4 0 0-5.5-2-4.4-11.2 0 0 5.1-3.8 17-2.3 0 0-5.9-4.2-16.3-5.5-.8 0 .3-12 1.3-17.3 1-5.4 3-4.5 7.2-4.1 4.2.5 16.8 3.3 18.4 6.4s0 10.9 0 10.9 3.5-4.3 3.5-10.3c0 0 4.7 1.7 7.3 4 2.5 2.2 3.8 4 4.5 5.7-.6 4.2-2.6 10.6-5.4 14.2 0 0 6.3-4 7.7-11.5 0 0 5 6.4 5 14.7-.1 9.3-4.3 16.3-12.4 20.6z"/><path id="s" d="M228.3 343.1c2.5 1.7 7.6.5 13.2-.1 5.2-.6 11.1-2.4 14.7-1.2s6.5 5.4 1.7 10.8c-1.4 1.6-4.3 4.3-6.7 5.1-6 2.1-11.3 2.3-15.2 3.3-5 1.2-7.7 3.4-12.4 4-6 .7-9.8-.8-10.8-2.4s-2-14.5.6-14.2c0 0 1.1 4.2 10.9.1 4.2-1.9 4.1-4.5 4-5.4z"/><path id="t" d="M263.6 358.9c.4.3.8.5 1.2.8.4.2.9.2 1.4.3 1.1.1 2.2.1 3.3.1 2.7-.1 5.5-.5 8.2-.8 5.6-.5 12-2.3 15.8-.9s7.2 6 1.9 11.6c-1.5 1.6-4.7 4.4-7.1 5.4-6.3 2.6-12.8 2.1-17 3.1-5.4 1.2-8.4 3.5-13.4 4-6.4.6-10.5-1.2-11.5-2.9-.6-1 .1-6-.7-10-.7-3.4-.5-5.7.7-5.5.2.4.6.8.9 1.2.4.5.9.9 1.4 1.1.8.4 1.6.6 2.4.8 1.5.4 3 .7 4.5.6.4 0 .9-.1 1.2-.4.4-.4.6-1 .7-1.5l.3-1.5c.1-.3.1-.5.3-.8s.5-.4.8-.6c.9-.5 1.9-1 2.5-1.9.4-.7.6-1.5.7-2.3a.76.76 0 0 1 .2-.4c.2-.1.5 0 .6.1.3.1.5.2.7.4z"/><path id="u" d="M226.7 307.9c1.2-6.6-4.2-11.7-14.2-18.5-10.1-6.8-22.9-13.5-29.1-16.4-8.4-3.9-17-3.5-27.8 2-15 7.7-60 35-60 35s67.3 38 80.3 36.3 45.3-22.8 47.9-30.2l2.9-8.2z"/><path id="v" d="M105.8 32.3c-.1-.7-.7-.9-1.3-.5l-53.9 31c-.4.2-.7.6-.9 1l-8-4.6c.2-.4.6-.7.9-1l53.9-31c.7-.4 1.9-.4 2.7 0l5.3 3c.7.4 1.2 1.3 1.3 2.1z"/></defs></svg>